<mxfile host="app.diagrams.net" modified="2021-07-12T20:39:51.409Z" agent="5.0 (Macintosh)" etag="XRonIJD40GW5aCIaLJp1" version="14.8.6" type="github" pages="4">
  <diagram id="KWCMroENYIzv3C8HbzbQ" name="Api">
    <mxGraphModel dx="1678" dy="838" grid="1" gridSize="10" guides="1" tooltips="1" connect="1" arrows="1" fold="1" page="1" pageScale="1" pageWidth="827" pageHeight="1169" math="0" shadow="0">
      <root>
        <mxCell id="0" />
        <mxCell id="1" parent="0" />
        <mxCell id="m-8dADaFQHAfap0iC8K7-13" style="edgeStyle=none;rounded=0;orthogonalLoop=1;jettySize=auto;html=1;entryX=0.5;entryY=0;entryDx=0;entryDy=0;fontSize=18;" parent="1" source="m-8dADaFQHAfap0iC8K7-1" target="m-8dADaFQHAfap0iC8K7-5" edge="1">
          <mxGeometry relative="1" as="geometry" />
        </mxCell>
        <mxCell id="m-8dADaFQHAfap0iC8K7-1" value="Client" style="rounded=0;whiteSpace=wrap;html=1;fontSize=18;fillColor=#f5f5f5;strokeColor=#666666;fontColor=#333333;" parent="1" vertex="1">
          <mxGeometry x="150" y="160" width="100" height="40" as="geometry" />
        </mxCell>
        <mxCell id="m-8dADaFQHAfap0iC8K7-10" style="edgeStyle=none;rounded=0;orthogonalLoop=1;jettySize=auto;html=1;entryX=0.5;entryY=0;entryDx=0;entryDy=0;fontSize=18;" parent="1" source="m-8dADaFQHAfap0iC8K7-2" target="m-8dADaFQHAfap0iC8K7-5" edge="1">
          <mxGeometry relative="1" as="geometry" />
        </mxCell>
        <mxCell id="m-8dADaFQHAfap0iC8K7-2" value="Client" style="rounded=0;whiteSpace=wrap;html=1;fontSize=18;fillColor=#f5f5f5;strokeColor=#666666;fontColor=#333333;" parent="1" vertex="1">
          <mxGeometry x="270" y="160" width="100" height="40" as="geometry" />
        </mxCell>
        <mxCell id="m-8dADaFQHAfap0iC8K7-11" style="edgeStyle=none;rounded=0;orthogonalLoop=1;jettySize=auto;html=1;entryX=0.5;entryY=0;entryDx=0;entryDy=0;fontSize=18;" parent="1" source="m-8dADaFQHAfap0iC8K7-3" target="m-8dADaFQHAfap0iC8K7-5" edge="1">
          <mxGeometry relative="1" as="geometry" />
        </mxCell>
        <mxCell id="m-8dADaFQHAfap0iC8K7-3" value="Client" style="rounded=0;whiteSpace=wrap;html=1;fontSize=18;fillColor=#f5f5f5;strokeColor=#666666;fontColor=#333333;" parent="1" vertex="1">
          <mxGeometry x="390" y="160" width="100" height="40" as="geometry" />
        </mxCell>
        <mxCell id="m-8dADaFQHAfap0iC8K7-12" style="edgeStyle=none;rounded=0;orthogonalLoop=1;jettySize=auto;html=1;entryX=0.5;entryY=0;entryDx=0;entryDy=0;fontSize=18;" parent="1" source="m-8dADaFQHAfap0iC8K7-4" target="m-8dADaFQHAfap0iC8K7-5" edge="1">
          <mxGeometry relative="1" as="geometry" />
        </mxCell>
        <mxCell id="m-8dADaFQHAfap0iC8K7-4" value="Client" style="rounded=0;whiteSpace=wrap;html=1;fontSize=18;fillColor=#f5f5f5;strokeColor=#666666;fontColor=#333333;" parent="1" vertex="1">
          <mxGeometry x="510" y="160" width="100" height="40" as="geometry" />
        </mxCell>
        <mxCell id="m-8dADaFQHAfap0iC8K7-14" style="edgeStyle=none;rounded=0;orthogonalLoop=1;jettySize=auto;html=1;entryX=0.5;entryY=0;entryDx=0;entryDy=0;fontSize=18;" parent="1" source="m-8dADaFQHAfap0iC8K7-5" target="m-8dADaFQHAfap0iC8K7-7" edge="1">
          <mxGeometry relative="1" as="geometry" />
        </mxCell>
        <mxCell id="m-8dADaFQHAfap0iC8K7-15" style="edgeStyle=none;rounded=0;orthogonalLoop=1;jettySize=auto;html=1;entryX=0.5;entryY=0;entryDx=0;entryDy=0;fontSize=18;" parent="1" source="m-8dADaFQHAfap0iC8K7-5" target="m-8dADaFQHAfap0iC8K7-8" edge="1">
          <mxGeometry relative="1" as="geometry" />
        </mxCell>
        <mxCell id="m-8dADaFQHAfap0iC8K7-5" value="" style="ellipse;whiteSpace=wrap;html=1;fontSize=18;fillColor=#f8cecc;strokeColor=#b85450;" parent="1" vertex="1">
          <mxGeometry x="370" y="310" width="20" height="20" as="geometry" />
        </mxCell>
        <mxCell id="FvyMITSBp_P54hjT1kFX-2" style="edgeStyle=none;rounded=0;orthogonalLoop=1;jettySize=auto;html=1;entryX=0;entryY=0.5;entryDx=0;entryDy=0;entryPerimeter=0;fontSize=17;" parent="1" source="m-8dADaFQHAfap0iC8K7-7" target="FvyMITSBp_P54hjT1kFX-1" edge="1">
          <mxGeometry relative="1" as="geometry" />
        </mxCell>
        <mxCell id="m-8dADaFQHAfap0iC8K7-7" value="&lt;span data-lucid-type=&quot;application/vnd.lucid.text&quot; data-lucid-content=&quot;{&amp;#34;t&amp;#34;:&amp;#34;API-1\n\nAuthentication,\nSettings,\nDatabase,\nPreferences,\nOther every thing &amp;#34;,&amp;#34;m&amp;#34;:[{&amp;#34;s&amp;#34;:0,&amp;#34;n&amp;#34;:&amp;#34;s&amp;#34;,&amp;#34;v&amp;#34;:22.22222222222222,&amp;#34;e&amp;#34;:74},{&amp;#34;s&amp;#34;:0,&amp;#34;n&amp;#34;:&amp;#34;c&amp;#34;,&amp;#34;v&amp;#34;:&amp;#34;333333ff&amp;#34;,&amp;#34;e&amp;#34;:74},{&amp;#34;s&amp;#34;:0,&amp;#34;n&amp;#34;:&amp;#34;fc&amp;#34;,&amp;#34;v&amp;#34;:&amp;#34;Bold&amp;#34;,&amp;#34;e&amp;#34;:74},{&amp;#34;s&amp;#34;:0,&amp;#34;n&amp;#34;:&amp;#34;b&amp;#34;,&amp;#34;v&amp;#34;:true,&amp;#34;e&amp;#34;:74},{&amp;#34;s&amp;#34;:0,&amp;#34;n&amp;#34;:&amp;#34;fid&amp;#34;,&amp;#34;v&amp;#34;:5,&amp;#34;e&amp;#34;:74},{&amp;#34;s&amp;#34;:6,&amp;#34;n&amp;#34;:&amp;#34;a&amp;#34;,&amp;#34;v&amp;#34;:&amp;#34;left&amp;#34;},{&amp;#34;s&amp;#34;:7,&amp;#34;n&amp;#34;:&amp;#34;t&amp;#34;,&amp;#34;v&amp;#34;:&amp;#34;ul&amp;#34;},{&amp;#34;s&amp;#34;:7,&amp;#34;n&amp;#34;:&amp;#34;l&amp;#34;,&amp;#34;v&amp;#34;:&amp;#34;auto&amp;#34;},{&amp;#34;s&amp;#34;:7,&amp;#34;n&amp;#34;:&amp;#34;il&amp;#34;,&amp;#34;v&amp;#34;:22.22222222222222},{&amp;#34;s&amp;#34;:7,&amp;#34;n&amp;#34;:&amp;#34;fl&amp;#34;,&amp;#34;v&amp;#34;:22.22222222222222},{&amp;#34;s&amp;#34;:7,&amp;#34;n&amp;#34;:&amp;#34;a&amp;#34;,&amp;#34;v&amp;#34;:&amp;#34;left&amp;#34;},{&amp;#34;s&amp;#34;:23,&amp;#34;n&amp;#34;:&amp;#34;t&amp;#34;,&amp;#34;v&amp;#34;:&amp;#34;ul&amp;#34;},{&amp;#34;s&amp;#34;:23,&amp;#34;n&amp;#34;:&amp;#34;l&amp;#34;,&amp;#34;v&amp;#34;:&amp;#34;auto&amp;#34;},{&amp;#34;s&amp;#34;:23,&amp;#34;n&amp;#34;:&amp;#34;il&amp;#34;,&amp;#34;v&amp;#34;:22.22222222222222},{&amp;#34;s&amp;#34;:23,&amp;#34;n&amp;#34;:&amp;#34;fl&amp;#34;,&amp;#34;v&amp;#34;:22.22222222222222},{&amp;#34;s&amp;#34;:23,&amp;#34;n&amp;#34;:&amp;#34;a&amp;#34;,&amp;#34;v&amp;#34;:&amp;#34;left&amp;#34;},{&amp;#34;s&amp;#34;:33,&amp;#34;n&amp;#34;:&amp;#34;t&amp;#34;,&amp;#34;v&amp;#34;:&amp;#34;ul&amp;#34;},{&amp;#34;s&amp;#34;:33,&amp;#34;n&amp;#34;:&amp;#34;l&amp;#34;,&amp;#34;v&amp;#34;:&amp;#34;auto&amp;#34;},{&amp;#34;s&amp;#34;:33,&amp;#34;n&amp;#34;:&amp;#34;il&amp;#34;,&amp;#34;v&amp;#34;:22.22222222222222},{&amp;#34;s&amp;#34;:33,&amp;#34;n&amp;#34;:&amp;#34;fl&amp;#34;,&amp;#34;v&amp;#34;:22.22222222222222},{&amp;#34;s&amp;#34;:33,&amp;#34;n&amp;#34;:&amp;#34;a&amp;#34;,&amp;#34;v&amp;#34;:&amp;#34;left&amp;#34;},{&amp;#34;s&amp;#34;:43,&amp;#34;n&amp;#34;:&amp;#34;t&amp;#34;,&amp;#34;v&amp;#34;:&amp;#34;ul&amp;#34;},{&amp;#34;s&amp;#34;:43,&amp;#34;n&amp;#34;:&amp;#34;l&amp;#34;,&amp;#34;v&amp;#34;:&amp;#34;auto&amp;#34;},{&amp;#34;s&amp;#34;:43,&amp;#34;n&amp;#34;:&amp;#34;il&amp;#34;,&amp;#34;v&amp;#34;:22.22222222222222},{&amp;#34;s&amp;#34;:43,&amp;#34;n&amp;#34;:&amp;#34;fl&amp;#34;,&amp;#34;v&amp;#34;:22.22222222222222},{&amp;#34;s&amp;#34;:43,&amp;#34;n&amp;#34;:&amp;#34;a&amp;#34;,&amp;#34;v&amp;#34;:&amp;#34;left&amp;#34;},{&amp;#34;s&amp;#34;:56,&amp;#34;n&amp;#34;:&amp;#34;t&amp;#34;,&amp;#34;v&amp;#34;:&amp;#34;ul&amp;#34;},{&amp;#34;s&amp;#34;:56,&amp;#34;n&amp;#34;:&amp;#34;l&amp;#34;,&amp;#34;v&amp;#34;:&amp;#34;auto&amp;#34;},{&amp;#34;s&amp;#34;:56,&amp;#34;n&amp;#34;:&amp;#34;il&amp;#34;,&amp;#34;v&amp;#34;:22.22222222222222},{&amp;#34;s&amp;#34;:56,&amp;#34;n&amp;#34;:&amp;#34;fl&amp;#34;,&amp;#34;v&amp;#34;:22.22222222222222},{&amp;#34;s&amp;#34;:56,&amp;#34;n&amp;#34;:&amp;#34;a&amp;#34;,&amp;#34;v&amp;#34;:&amp;#34;left&amp;#34;}]}&quot;&gt;&lt;span style=&quot;font-size: 16.666666666666664px ; color: #333333 ; font-weight: bold&quot;&gt;API-1&lt;/span&gt;&lt;span style=&quot;font-size: 16.666666666666664px ; color: #333333 ; font-weight: bold ; text-align: left&quot;&gt;&lt;br&gt;&lt;/span&gt;&lt;/span&gt;&lt;div style=&quot;font-size: 15px&quot; align=&quot;left&quot;&gt;&lt;span data-lucid-type=&quot;application/vnd.lucid.text&quot; data-lucid-content=&quot;{&amp;#34;t&amp;#34;:&amp;#34;API-1\n\nAuthentication,\nSettings,\nDatabase,\nPreferences,\nOther every thing &amp;#34;,&amp;#34;m&amp;#34;:[{&amp;#34;s&amp;#34;:0,&amp;#34;n&amp;#34;:&amp;#34;s&amp;#34;,&amp;#34;v&amp;#34;:22.22222222222222,&amp;#34;e&amp;#34;:74},{&amp;#34;s&amp;#34;:0,&amp;#34;n&amp;#34;:&amp;#34;c&amp;#34;,&amp;#34;v&amp;#34;:&amp;#34;333333ff&amp;#34;,&amp;#34;e&amp;#34;:74},{&amp;#34;s&amp;#34;:0,&amp;#34;n&amp;#34;:&amp;#34;fc&amp;#34;,&amp;#34;v&amp;#34;:&amp;#34;Bold&amp;#34;,&amp;#34;e&amp;#34;:74},{&amp;#34;s&amp;#34;:0,&amp;#34;n&amp;#34;:&amp;#34;b&amp;#34;,&amp;#34;v&amp;#34;:true,&amp;#34;e&amp;#34;:74},{&amp;#34;s&amp;#34;:0,&amp;#34;n&amp;#34;:&amp;#34;fid&amp;#34;,&amp;#34;v&amp;#34;:5,&amp;#34;e&amp;#34;:74},{&amp;#34;s&amp;#34;:6,&amp;#34;n&amp;#34;:&amp;#34;a&amp;#34;,&amp;#34;v&amp;#34;:&amp;#34;left&amp;#34;},{&amp;#34;s&amp;#34;:7,&amp;#34;n&amp;#34;:&amp;#34;t&amp;#34;,&amp;#34;v&amp;#34;:&amp;#34;ul&amp;#34;},{&amp;#34;s&amp;#34;:7,&amp;#34;n&amp;#34;:&amp;#34;l&amp;#34;,&amp;#34;v&amp;#34;:&amp;#34;auto&amp;#34;},{&amp;#34;s&amp;#34;:7,&amp;#34;n&amp;#34;:&amp;#34;il&amp;#34;,&amp;#34;v&amp;#34;:22.22222222222222},{&amp;#34;s&amp;#34;:7,&amp;#34;n&amp;#34;:&amp;#34;fl&amp;#34;,&amp;#34;v&amp;#34;:22.22222222222222},{&amp;#34;s&amp;#34;:7,&amp;#34;n&amp;#34;:&amp;#34;a&amp;#34;,&amp;#34;v&amp;#34;:&amp;#34;left&amp;#34;},{&amp;#34;s&amp;#34;:23,&amp;#34;n&amp;#34;:&amp;#34;t&amp;#34;,&amp;#34;v&amp;#34;:&amp;#34;ul&amp;#34;},{&amp;#34;s&amp;#34;:23,&amp;#34;n&amp;#34;:&amp;#34;l&amp;#34;,&amp;#34;v&amp;#34;:&amp;#34;auto&amp;#34;},{&amp;#34;s&amp;#34;:23,&amp;#34;n&amp;#34;:&amp;#34;il&amp;#34;,&amp;#34;v&amp;#34;:22.22222222222222},{&amp;#34;s&amp;#34;:23,&amp;#34;n&amp;#34;:&amp;#34;fl&amp;#34;,&amp;#34;v&amp;#34;:22.22222222222222},{&amp;#34;s&amp;#34;:23,&amp;#34;n&amp;#34;:&amp;#34;a&amp;#34;,&amp;#34;v&amp;#34;:&amp;#34;left&amp;#34;},{&amp;#34;s&amp;#34;:33,&amp;#34;n&amp;#34;:&amp;#34;t&amp;#34;,&amp;#34;v&amp;#34;:&amp;#34;ul&amp;#34;},{&amp;#34;s&amp;#34;:33,&amp;#34;n&amp;#34;:&amp;#34;l&amp;#34;,&amp;#34;v&amp;#34;:&amp;#34;auto&amp;#34;},{&amp;#34;s&amp;#34;:33,&amp;#34;n&amp;#34;:&amp;#34;il&amp;#34;,&amp;#34;v&amp;#34;:22.22222222222222},{&amp;#34;s&amp;#34;:33,&amp;#34;n&amp;#34;:&amp;#34;fl&amp;#34;,&amp;#34;v&amp;#34;:22.22222222222222},{&amp;#34;s&amp;#34;:33,&amp;#34;n&amp;#34;:&amp;#34;a&amp;#34;,&amp;#34;v&amp;#34;:&amp;#34;left&amp;#34;},{&amp;#34;s&amp;#34;:43,&amp;#34;n&amp;#34;:&amp;#34;t&amp;#34;,&amp;#34;v&amp;#34;:&amp;#34;ul&amp;#34;},{&amp;#34;s&amp;#34;:43,&amp;#34;n&amp;#34;:&amp;#34;l&amp;#34;,&amp;#34;v&amp;#34;:&amp;#34;auto&amp;#34;},{&amp;#34;s&amp;#34;:43,&amp;#34;n&amp;#34;:&amp;#34;il&amp;#34;,&amp;#34;v&amp;#34;:22.22222222222222},{&amp;#34;s&amp;#34;:43,&amp;#34;n&amp;#34;:&amp;#34;fl&amp;#34;,&amp;#34;v&amp;#34;:22.22222222222222},{&amp;#34;s&amp;#34;:43,&amp;#34;n&amp;#34;:&amp;#34;a&amp;#34;,&amp;#34;v&amp;#34;:&amp;#34;left&amp;#34;},{&amp;#34;s&amp;#34;:56,&amp;#34;n&amp;#34;:&amp;#34;t&amp;#34;,&amp;#34;v&amp;#34;:&amp;#34;ul&amp;#34;},{&amp;#34;s&amp;#34;:56,&amp;#34;n&amp;#34;:&amp;#34;l&amp;#34;,&amp;#34;v&amp;#34;:&amp;#34;auto&amp;#34;},{&amp;#34;s&amp;#34;:56,&amp;#34;n&amp;#34;:&amp;#34;il&amp;#34;,&amp;#34;v&amp;#34;:22.22222222222222},{&amp;#34;s&amp;#34;:56,&amp;#34;n&amp;#34;:&amp;#34;fl&amp;#34;,&amp;#34;v&amp;#34;:22.22222222222222},{&amp;#34;s&amp;#34;:56,&amp;#34;n&amp;#34;:&amp;#34;a&amp;#34;,&amp;#34;v&amp;#34;:&amp;#34;left&amp;#34;}]}&quot;&gt;&lt;span style=&quot;color: rgb(51 , 51 , 51)&quot;&gt;Authentication,&lt;/span&gt;&lt;/span&gt;&lt;br&gt;&lt;span data-lucid-type=&quot;application/vnd.lucid.text&quot; data-lucid-content=&quot;{&amp;#34;t&amp;#34;:&amp;#34;API-1\n\nAuthentication,\nSettings,\nDatabase,\nPreferences,\nOther every thing &amp;#34;,&amp;#34;m&amp;#34;:[{&amp;#34;s&amp;#34;:0,&amp;#34;n&amp;#34;:&amp;#34;s&amp;#34;,&amp;#34;v&amp;#34;:22.22222222222222,&amp;#34;e&amp;#34;:74},{&amp;#34;s&amp;#34;:0,&amp;#34;n&amp;#34;:&amp;#34;c&amp;#34;,&amp;#34;v&amp;#34;:&amp;#34;333333ff&amp;#34;,&amp;#34;e&amp;#34;:74},{&amp;#34;s&amp;#34;:0,&amp;#34;n&amp;#34;:&amp;#34;fc&amp;#34;,&amp;#34;v&amp;#34;:&amp;#34;Bold&amp;#34;,&amp;#34;e&amp;#34;:74},{&amp;#34;s&amp;#34;:0,&amp;#34;n&amp;#34;:&amp;#34;b&amp;#34;,&amp;#34;v&amp;#34;:true,&amp;#34;e&amp;#34;:74},{&amp;#34;s&amp;#34;:0,&amp;#34;n&amp;#34;:&amp;#34;fid&amp;#34;,&amp;#34;v&amp;#34;:5,&amp;#34;e&amp;#34;:74},{&amp;#34;s&amp;#34;:6,&amp;#34;n&amp;#34;:&amp;#34;a&amp;#34;,&amp;#34;v&amp;#34;:&amp;#34;left&amp;#34;},{&amp;#34;s&amp;#34;:7,&amp;#34;n&amp;#34;:&amp;#34;t&amp;#34;,&amp;#34;v&amp;#34;:&amp;#34;ul&amp;#34;},{&amp;#34;s&amp;#34;:7,&amp;#34;n&amp;#34;:&amp;#34;l&amp;#34;,&amp;#34;v&amp;#34;:&amp;#34;auto&amp;#34;},{&amp;#34;s&amp;#34;:7,&amp;#34;n&amp;#34;:&amp;#34;il&amp;#34;,&amp;#34;v&amp;#34;:22.22222222222222},{&amp;#34;s&amp;#34;:7,&amp;#34;n&amp;#34;:&amp;#34;fl&amp;#34;,&amp;#34;v&amp;#34;:22.22222222222222},{&amp;#34;s&amp;#34;:7,&amp;#34;n&amp;#34;:&amp;#34;a&amp;#34;,&amp;#34;v&amp;#34;:&amp;#34;left&amp;#34;},{&amp;#34;s&amp;#34;:23,&amp;#34;n&amp;#34;:&amp;#34;t&amp;#34;,&amp;#34;v&amp;#34;:&amp;#34;ul&amp;#34;},{&amp;#34;s&amp;#34;:23,&amp;#34;n&amp;#34;:&amp;#34;l&amp;#34;,&amp;#34;v&amp;#34;:&amp;#34;auto&amp;#34;},{&amp;#34;s&amp;#34;:23,&amp;#34;n&amp;#34;:&amp;#34;il&amp;#34;,&amp;#34;v&amp;#34;:22.22222222222222},{&amp;#34;s&amp;#34;:23,&amp;#34;n&amp;#34;:&amp;#34;fl&amp;#34;,&amp;#34;v&amp;#34;:22.22222222222222},{&amp;#34;s&amp;#34;:23,&amp;#34;n&amp;#34;:&amp;#34;a&amp;#34;,&amp;#34;v&amp;#34;:&amp;#34;left&amp;#34;},{&amp;#34;s&amp;#34;:33,&amp;#34;n&amp;#34;:&amp;#34;t&amp;#34;,&amp;#34;v&amp;#34;:&amp;#34;ul&amp;#34;},{&amp;#34;s&amp;#34;:33,&amp;#34;n&amp;#34;:&amp;#34;l&amp;#34;,&amp;#34;v&amp;#34;:&amp;#34;auto&amp;#34;},{&amp;#34;s&amp;#34;:33,&amp;#34;n&amp;#34;:&amp;#34;il&amp;#34;,&amp;#34;v&amp;#34;:22.22222222222222},{&amp;#34;s&amp;#34;:33,&amp;#34;n&amp;#34;:&amp;#34;fl&amp;#34;,&amp;#34;v&amp;#34;:22.22222222222222},{&amp;#34;s&amp;#34;:33,&amp;#34;n&amp;#34;:&amp;#34;a&amp;#34;,&amp;#34;v&amp;#34;:&amp;#34;left&amp;#34;},{&amp;#34;s&amp;#34;:43,&amp;#34;n&amp;#34;:&amp;#34;t&amp;#34;,&amp;#34;v&amp;#34;:&amp;#34;ul&amp;#34;},{&amp;#34;s&amp;#34;:43,&amp;#34;n&amp;#34;:&amp;#34;l&amp;#34;,&amp;#34;v&amp;#34;:&amp;#34;auto&amp;#34;},{&amp;#34;s&amp;#34;:43,&amp;#34;n&amp;#34;:&amp;#34;il&amp;#34;,&amp;#34;v&amp;#34;:22.22222222222222},{&amp;#34;s&amp;#34;:43,&amp;#34;n&amp;#34;:&amp;#34;fl&amp;#34;,&amp;#34;v&amp;#34;:22.22222222222222},{&amp;#34;s&amp;#34;:43,&amp;#34;n&amp;#34;:&amp;#34;a&amp;#34;,&amp;#34;v&amp;#34;:&amp;#34;left&amp;#34;},{&amp;#34;s&amp;#34;:56,&amp;#34;n&amp;#34;:&amp;#34;t&amp;#34;,&amp;#34;v&amp;#34;:&amp;#34;ul&amp;#34;},{&amp;#34;s&amp;#34;:56,&amp;#34;n&amp;#34;:&amp;#34;l&amp;#34;,&amp;#34;v&amp;#34;:&amp;#34;auto&amp;#34;},{&amp;#34;s&amp;#34;:56,&amp;#34;n&amp;#34;:&amp;#34;il&amp;#34;,&amp;#34;v&amp;#34;:22.22222222222222},{&amp;#34;s&amp;#34;:56,&amp;#34;n&amp;#34;:&amp;#34;fl&amp;#34;,&amp;#34;v&amp;#34;:22.22222222222222},{&amp;#34;s&amp;#34;:56,&amp;#34;n&amp;#34;:&amp;#34;a&amp;#34;,&amp;#34;v&amp;#34;:&amp;#34;left&amp;#34;}]}&quot;&gt;&lt;span style=&quot;color: rgb(51 , 51 , 51)&quot;&gt;&lt;/span&gt;&lt;span style=&quot;color: rgb(51 , 51 , 51)&quot;&gt;Settings,&lt;/span&gt;&lt;/span&gt;&lt;br&gt;&lt;span data-lucid-type=&quot;application/vnd.lucid.text&quot; data-lucid-content=&quot;{&amp;#34;t&amp;#34;:&amp;#34;API-1\n\nAuthentication,\nSettings,\nDatabase,\nPreferences,\nOther every thing &amp;#34;,&amp;#34;m&amp;#34;:[{&amp;#34;s&amp;#34;:0,&amp;#34;n&amp;#34;:&amp;#34;s&amp;#34;,&amp;#34;v&amp;#34;:22.22222222222222,&amp;#34;e&amp;#34;:74},{&amp;#34;s&amp;#34;:0,&amp;#34;n&amp;#34;:&amp;#34;c&amp;#34;,&amp;#34;v&amp;#34;:&amp;#34;333333ff&amp;#34;,&amp;#34;e&amp;#34;:74},{&amp;#34;s&amp;#34;:0,&amp;#34;n&amp;#34;:&amp;#34;fc&amp;#34;,&amp;#34;v&amp;#34;:&amp;#34;Bold&amp;#34;,&amp;#34;e&amp;#34;:74},{&amp;#34;s&amp;#34;:0,&amp;#34;n&amp;#34;:&amp;#34;b&amp;#34;,&amp;#34;v&amp;#34;:true,&amp;#34;e&amp;#34;:74},{&amp;#34;s&amp;#34;:0,&amp;#34;n&amp;#34;:&amp;#34;fid&amp;#34;,&amp;#34;v&amp;#34;:5,&amp;#34;e&amp;#34;:74},{&amp;#34;s&amp;#34;:6,&amp;#34;n&amp;#34;:&amp;#34;a&amp;#34;,&amp;#34;v&amp;#34;:&amp;#34;left&amp;#34;},{&amp;#34;s&amp;#34;:7,&amp;#34;n&amp;#34;:&amp;#34;t&amp;#34;,&amp;#34;v&amp;#34;:&amp;#34;ul&amp;#34;},{&amp;#34;s&amp;#34;:7,&amp;#34;n&amp;#34;:&amp;#34;l&amp;#34;,&amp;#34;v&amp;#34;:&amp;#34;auto&amp;#34;},{&amp;#34;s&amp;#34;:7,&amp;#34;n&amp;#34;:&amp;#34;il&amp;#34;,&amp;#34;v&amp;#34;:22.22222222222222},{&amp;#34;s&amp;#34;:7,&amp;#34;n&amp;#34;:&amp;#34;fl&amp;#34;,&amp;#34;v&amp;#34;:22.22222222222222},{&amp;#34;s&amp;#34;:7,&amp;#34;n&amp;#34;:&amp;#34;a&amp;#34;,&amp;#34;v&amp;#34;:&amp;#34;left&amp;#34;},{&amp;#34;s&amp;#34;:23,&amp;#34;n&amp;#34;:&amp;#34;t&amp;#34;,&amp;#34;v&amp;#34;:&amp;#34;ul&amp;#34;},{&amp;#34;s&amp;#34;:23,&amp;#34;n&amp;#34;:&amp;#34;l&amp;#34;,&amp;#34;v&amp;#34;:&amp;#34;auto&amp;#34;},{&amp;#34;s&amp;#34;:23,&amp;#34;n&amp;#34;:&amp;#34;il&amp;#34;,&amp;#34;v&amp;#34;:22.22222222222222},{&amp;#34;s&amp;#34;:23,&amp;#34;n&amp;#34;:&amp;#34;fl&amp;#34;,&amp;#34;v&amp;#34;:22.22222222222222},{&amp;#34;s&amp;#34;:23,&amp;#34;n&amp;#34;:&amp;#34;a&amp;#34;,&amp;#34;v&amp;#34;:&amp;#34;left&amp;#34;},{&amp;#34;s&amp;#34;:33,&amp;#34;n&amp;#34;:&amp;#34;t&amp;#34;,&amp;#34;v&amp;#34;:&amp;#34;ul&amp;#34;},{&amp;#34;s&amp;#34;:33,&amp;#34;n&amp;#34;:&amp;#34;l&amp;#34;,&amp;#34;v&amp;#34;:&amp;#34;auto&amp;#34;},{&amp;#34;s&amp;#34;:33,&amp;#34;n&amp;#34;:&amp;#34;il&amp;#34;,&amp;#34;v&amp;#34;:22.22222222222222},{&amp;#34;s&amp;#34;:33,&amp;#34;n&amp;#34;:&amp;#34;fl&amp;#34;,&amp;#34;v&amp;#34;:22.22222222222222},{&amp;#34;s&amp;#34;:33,&amp;#34;n&amp;#34;:&amp;#34;a&amp;#34;,&amp;#34;v&amp;#34;:&amp;#34;left&amp;#34;},{&amp;#34;s&amp;#34;:43,&amp;#34;n&amp;#34;:&amp;#34;t&amp;#34;,&amp;#34;v&amp;#34;:&amp;#34;ul&amp;#34;},{&amp;#34;s&amp;#34;:43,&amp;#34;n&amp;#34;:&amp;#34;l&amp;#34;,&amp;#34;v&amp;#34;:&amp;#34;auto&amp;#34;},{&amp;#34;s&amp;#34;:43,&amp;#34;n&amp;#34;:&amp;#34;il&amp;#34;,&amp;#34;v&amp;#34;:22.22222222222222},{&amp;#34;s&amp;#34;:43,&amp;#34;n&amp;#34;:&amp;#34;fl&amp;#34;,&amp;#34;v&amp;#34;:22.22222222222222},{&amp;#34;s&amp;#34;:43,&amp;#34;n&amp;#34;:&amp;#34;a&amp;#34;,&amp;#34;v&amp;#34;:&amp;#34;left&amp;#34;},{&amp;#34;s&amp;#34;:56,&amp;#34;n&amp;#34;:&amp;#34;t&amp;#34;,&amp;#34;v&amp;#34;:&amp;#34;ul&amp;#34;},{&amp;#34;s&amp;#34;:56,&amp;#34;n&amp;#34;:&amp;#34;l&amp;#34;,&amp;#34;v&amp;#34;:&amp;#34;auto&amp;#34;},{&amp;#34;s&amp;#34;:56,&amp;#34;n&amp;#34;:&amp;#34;il&amp;#34;,&amp;#34;v&amp;#34;:22.22222222222222},{&amp;#34;s&amp;#34;:56,&amp;#34;n&amp;#34;:&amp;#34;fl&amp;#34;,&amp;#34;v&amp;#34;:22.22222222222222},{&amp;#34;s&amp;#34;:56,&amp;#34;n&amp;#34;:&amp;#34;a&amp;#34;,&amp;#34;v&amp;#34;:&amp;#34;left&amp;#34;}]}&quot;&gt;&lt;span style=&quot;color: rgb(51 , 51 , 51)&quot;&gt;&lt;/span&gt;&lt;span style=&quot;color: rgb(51 , 51 , 51)&quot;&gt;Database,&lt;/span&gt;&lt;/span&gt;&lt;br&gt;&lt;span data-lucid-type=&quot;application/vnd.lucid.text&quot; data-lucid-content=&quot;{&amp;#34;t&amp;#34;:&amp;#34;API-1\n\nAuthentication,\nSettings,\nDatabase,\nPreferences,\nOther every thing &amp;#34;,&amp;#34;m&amp;#34;:[{&amp;#34;s&amp;#34;:0,&amp;#34;n&amp;#34;:&amp;#34;s&amp;#34;,&amp;#34;v&amp;#34;:22.22222222222222,&amp;#34;e&amp;#34;:74},{&amp;#34;s&amp;#34;:0,&amp;#34;n&amp;#34;:&amp;#34;c&amp;#34;,&amp;#34;v&amp;#34;:&amp;#34;333333ff&amp;#34;,&amp;#34;e&amp;#34;:74},{&amp;#34;s&amp;#34;:0,&amp;#34;n&amp;#34;:&amp;#34;fc&amp;#34;,&amp;#34;v&amp;#34;:&amp;#34;Bold&amp;#34;,&amp;#34;e&amp;#34;:74},{&amp;#34;s&amp;#34;:0,&amp;#34;n&amp;#34;:&amp;#34;b&amp;#34;,&amp;#34;v&amp;#34;:true,&amp;#34;e&amp;#34;:74},{&amp;#34;s&amp;#34;:0,&amp;#34;n&amp;#34;:&amp;#34;fid&amp;#34;,&amp;#34;v&amp;#34;:5,&amp;#34;e&amp;#34;:74},{&amp;#34;s&amp;#34;:6,&amp;#34;n&amp;#34;:&amp;#34;a&amp;#34;,&amp;#34;v&amp;#34;:&amp;#34;left&amp;#34;},{&amp;#34;s&amp;#34;:7,&amp;#34;n&amp;#34;:&amp;#34;t&amp;#34;,&amp;#34;v&amp;#34;:&amp;#34;ul&amp;#34;},{&amp;#34;s&amp;#34;:7,&amp;#34;n&amp;#34;:&amp;#34;l&amp;#34;,&amp;#34;v&amp;#34;:&amp;#34;auto&amp;#34;},{&amp;#34;s&amp;#34;:7,&amp;#34;n&amp;#34;:&amp;#34;il&amp;#34;,&amp;#34;v&amp;#34;:22.22222222222222},{&amp;#34;s&amp;#34;:7,&amp;#34;n&amp;#34;:&amp;#34;fl&amp;#34;,&amp;#34;v&amp;#34;:22.22222222222222},{&amp;#34;s&amp;#34;:7,&amp;#34;n&amp;#34;:&amp;#34;a&amp;#34;,&amp;#34;v&amp;#34;:&amp;#34;left&amp;#34;},{&amp;#34;s&amp;#34;:23,&amp;#34;n&amp;#34;:&amp;#34;t&amp;#34;,&amp;#34;v&amp;#34;:&amp;#34;ul&amp;#34;},{&amp;#34;s&amp;#34;:23,&amp;#34;n&amp;#34;:&amp;#34;l&amp;#34;,&amp;#34;v&amp;#34;:&amp;#34;auto&amp;#34;},{&amp;#34;s&amp;#34;:23,&amp;#34;n&amp;#34;:&amp;#34;il&amp;#34;,&amp;#34;v&amp;#34;:22.22222222222222},{&amp;#34;s&amp;#34;:23,&amp;#34;n&amp;#34;:&amp;#34;fl&amp;#34;,&amp;#34;v&amp;#34;:22.22222222222222},{&amp;#34;s&amp;#34;:23,&amp;#34;n&amp;#34;:&amp;#34;a&amp;#34;,&amp;#34;v&amp;#34;:&amp;#34;left&amp;#34;},{&amp;#34;s&amp;#34;:33,&amp;#34;n&amp;#34;:&amp;#34;t&amp;#34;,&amp;#34;v&amp;#34;:&amp;#34;ul&amp;#34;},{&amp;#34;s&amp;#34;:33,&amp;#34;n&amp;#34;:&amp;#34;l&amp;#34;,&amp;#34;v&amp;#34;:&amp;#34;auto&amp;#34;},{&amp;#34;s&amp;#34;:33,&amp;#34;n&amp;#34;:&amp;#34;il&amp;#34;,&amp;#34;v&amp;#34;:22.22222222222222},{&amp;#34;s&amp;#34;:33,&amp;#34;n&amp;#34;:&amp;#34;fl&amp;#34;,&amp;#34;v&amp;#34;:22.22222222222222},{&amp;#34;s&amp;#34;:33,&amp;#34;n&amp;#34;:&amp;#34;a&amp;#34;,&amp;#34;v&amp;#34;:&amp;#34;left&amp;#34;},{&amp;#34;s&amp;#34;:43,&amp;#34;n&amp;#34;:&amp;#34;t&amp;#34;,&amp;#34;v&amp;#34;:&amp;#34;ul&amp;#34;},{&amp;#34;s&amp;#34;:43,&amp;#34;n&amp;#34;:&amp;#34;l&amp;#34;,&amp;#34;v&amp;#34;:&amp;#34;auto&amp;#34;},{&amp;#34;s&amp;#34;:43,&amp;#34;n&amp;#34;:&amp;#34;il&amp;#34;,&amp;#34;v&amp;#34;:22.22222222222222},{&amp;#34;s&amp;#34;:43,&amp;#34;n&amp;#34;:&amp;#34;fl&amp;#34;,&amp;#34;v&amp;#34;:22.22222222222222},{&amp;#34;s&amp;#34;:43,&amp;#34;n&amp;#34;:&amp;#34;a&amp;#34;,&amp;#34;v&amp;#34;:&amp;#34;left&amp;#34;},{&amp;#34;s&amp;#34;:56,&amp;#34;n&amp;#34;:&amp;#34;t&amp;#34;,&amp;#34;v&amp;#34;:&amp;#34;ul&amp;#34;},{&amp;#34;s&amp;#34;:56,&amp;#34;n&amp;#34;:&amp;#34;l&amp;#34;,&amp;#34;v&amp;#34;:&amp;#34;auto&amp;#34;},{&amp;#34;s&amp;#34;:56,&amp;#34;n&amp;#34;:&amp;#34;il&amp;#34;,&amp;#34;v&amp;#34;:22.22222222222222},{&amp;#34;s&amp;#34;:56,&amp;#34;n&amp;#34;:&amp;#34;fl&amp;#34;,&amp;#34;v&amp;#34;:22.22222222222222},{&amp;#34;s&amp;#34;:56,&amp;#34;n&amp;#34;:&amp;#34;a&amp;#34;,&amp;#34;v&amp;#34;:&amp;#34;left&amp;#34;}]}&quot;&gt;&lt;span style=&quot;color: rgb(51 , 51 , 51)&quot;&gt;&lt;/span&gt;&lt;span style=&quot;color: rgb(51 , 51 , 51)&quot;&gt;Preferences,&lt;/span&gt;&lt;/span&gt;&lt;br&gt;&lt;span data-lucid-type=&quot;application/vnd.lucid.text&quot; data-lucid-content=&quot;{&amp;#34;t&amp;#34;:&amp;#34;API-1\n\nAuthentication,\nSettings,\nDatabase,\nPreferences,\nOther every thing &amp;#34;,&amp;#34;m&amp;#34;:[{&amp;#34;s&amp;#34;:0,&amp;#34;n&amp;#34;:&amp;#34;s&amp;#34;,&amp;#34;v&amp;#34;:22.22222222222222,&amp;#34;e&amp;#34;:74},{&amp;#34;s&amp;#34;:0,&amp;#34;n&amp;#34;:&amp;#34;c&amp;#34;,&amp;#34;v&amp;#34;:&amp;#34;333333ff&amp;#34;,&amp;#34;e&amp;#34;:74},{&amp;#34;s&amp;#34;:0,&amp;#34;n&amp;#34;:&amp;#34;fc&amp;#34;,&amp;#34;v&amp;#34;:&amp;#34;Bold&amp;#34;,&amp;#34;e&amp;#34;:74},{&amp;#34;s&amp;#34;:0,&amp;#34;n&amp;#34;:&amp;#34;b&amp;#34;,&amp;#34;v&amp;#34;:true,&amp;#34;e&amp;#34;:74},{&amp;#34;s&amp;#34;:0,&amp;#34;n&amp;#34;:&amp;#34;fid&amp;#34;,&amp;#34;v&amp;#34;:5,&amp;#34;e&amp;#34;:74},{&amp;#34;s&amp;#34;:6,&amp;#34;n&amp;#34;:&amp;#34;a&amp;#34;,&amp;#34;v&amp;#34;:&amp;#34;left&amp;#34;},{&amp;#34;s&amp;#34;:7,&amp;#34;n&amp;#34;:&amp;#34;t&amp;#34;,&amp;#34;v&amp;#34;:&amp;#34;ul&amp;#34;},{&amp;#34;s&amp;#34;:7,&amp;#34;n&amp;#34;:&amp;#34;l&amp;#34;,&amp;#34;v&amp;#34;:&amp;#34;auto&amp;#34;},{&amp;#34;s&amp;#34;:7,&amp;#34;n&amp;#34;:&amp;#34;il&amp;#34;,&amp;#34;v&amp;#34;:22.22222222222222},{&amp;#34;s&amp;#34;:7,&amp;#34;n&amp;#34;:&amp;#34;fl&amp;#34;,&amp;#34;v&amp;#34;:22.22222222222222},{&amp;#34;s&amp;#34;:7,&amp;#34;n&amp;#34;:&amp;#34;a&amp;#34;,&amp;#34;v&amp;#34;:&amp;#34;left&amp;#34;},{&amp;#34;s&amp;#34;:23,&amp;#34;n&amp;#34;:&amp;#34;t&amp;#34;,&amp;#34;v&amp;#34;:&amp;#34;ul&amp;#34;},{&amp;#34;s&amp;#34;:23,&amp;#34;n&amp;#34;:&amp;#34;l&amp;#34;,&amp;#34;v&amp;#34;:&amp;#34;auto&amp;#34;},{&amp;#34;s&amp;#34;:23,&amp;#34;n&amp;#34;:&amp;#34;il&amp;#34;,&amp;#34;v&amp;#34;:22.22222222222222},{&amp;#34;s&amp;#34;:23,&amp;#34;n&amp;#34;:&amp;#34;fl&amp;#34;,&amp;#34;v&amp;#34;:22.22222222222222},{&amp;#34;s&amp;#34;:23,&amp;#34;n&amp;#34;:&amp;#34;a&amp;#34;,&amp;#34;v&amp;#34;:&amp;#34;left&amp;#34;},{&amp;#34;s&amp;#34;:33,&amp;#34;n&amp;#34;:&amp;#34;t&amp;#34;,&amp;#34;v&amp;#34;:&amp;#34;ul&amp;#34;},{&amp;#34;s&amp;#34;:33,&amp;#34;n&amp;#34;:&amp;#34;l&amp;#34;,&amp;#34;v&amp;#34;:&amp;#34;auto&amp;#34;},{&amp;#34;s&amp;#34;:33,&amp;#34;n&amp;#34;:&amp;#34;il&amp;#34;,&amp;#34;v&amp;#34;:22.22222222222222},{&amp;#34;s&amp;#34;:33,&amp;#34;n&amp;#34;:&amp;#34;fl&amp;#34;,&amp;#34;v&amp;#34;:22.22222222222222},{&amp;#34;s&amp;#34;:33,&amp;#34;n&amp;#34;:&amp;#34;a&amp;#34;,&amp;#34;v&amp;#34;:&amp;#34;left&amp;#34;},{&amp;#34;s&amp;#34;:43,&amp;#34;n&amp;#34;:&amp;#34;t&amp;#34;,&amp;#34;v&amp;#34;:&amp;#34;ul&amp;#34;},{&amp;#34;s&amp;#34;:43,&amp;#34;n&amp;#34;:&amp;#34;l&amp;#34;,&amp;#34;v&amp;#34;:&amp;#34;auto&amp;#34;},{&amp;#34;s&amp;#34;:43,&amp;#34;n&amp;#34;:&amp;#34;il&amp;#34;,&amp;#34;v&amp;#34;:22.22222222222222},{&amp;#34;s&amp;#34;:43,&amp;#34;n&amp;#34;:&amp;#34;fl&amp;#34;,&amp;#34;v&amp;#34;:22.22222222222222},{&amp;#34;s&amp;#34;:43,&amp;#34;n&amp;#34;:&amp;#34;a&amp;#34;,&amp;#34;v&amp;#34;:&amp;#34;left&amp;#34;},{&amp;#34;s&amp;#34;:56,&amp;#34;n&amp;#34;:&amp;#34;t&amp;#34;,&amp;#34;v&amp;#34;:&amp;#34;ul&amp;#34;},{&amp;#34;s&amp;#34;:56,&amp;#34;n&amp;#34;:&amp;#34;l&amp;#34;,&amp;#34;v&amp;#34;:&amp;#34;auto&amp;#34;},{&amp;#34;s&amp;#34;:56,&amp;#34;n&amp;#34;:&amp;#34;il&amp;#34;,&amp;#34;v&amp;#34;:22.22222222222222},{&amp;#34;s&amp;#34;:56,&amp;#34;n&amp;#34;:&amp;#34;fl&amp;#34;,&amp;#34;v&amp;#34;:22.22222222222222},{&amp;#34;s&amp;#34;:56,&amp;#34;n&amp;#34;:&amp;#34;a&amp;#34;,&amp;#34;v&amp;#34;:&amp;#34;left&amp;#34;}]}&quot;&gt;&lt;span style=&quot;color: rgb(51 , 51 , 51)&quot;&gt;&lt;/span&gt;&lt;span style=&quot;color: rgb(51 , 51 , 51)&quot;&gt;Other every thing&lt;/span&gt;&lt;span style=&quot;color: rgb(51 , 51 , 51) ; font-weight: bold&quot;&gt; &lt;/span&gt;&lt;/span&gt;&lt;/div&gt;" style="rounded=0;whiteSpace=wrap;html=1;fontSize=18;verticalAlign=top;" parent="1" vertex="1">
          <mxGeometry x="120" y="430" width="150" height="150" as="geometry" />
        </mxCell>
        <mxCell id="FvyMITSBp_P54hjT1kFX-3" style="edgeStyle=none;rounded=0;orthogonalLoop=1;jettySize=auto;html=1;entryX=1;entryY=0.5;entryDx=0;entryDy=0;entryPerimeter=0;fontSize=17;" parent="1" source="m-8dADaFQHAfap0iC8K7-8" target="FvyMITSBp_P54hjT1kFX-1" edge="1">
          <mxGeometry relative="1" as="geometry" />
        </mxCell>
        <mxCell id="m-8dADaFQHAfap0iC8K7-8" value="&lt;span data-lucid-type=&quot;application/vnd.lucid.text&quot; data-lucid-content=&quot;{&amp;#34;t&amp;#34;:&amp;#34;API-1\n\nAuthentication,\nSettings,\nDatabase,\nPreferences,\nOther every thing &amp;#34;,&amp;#34;m&amp;#34;:[{&amp;#34;s&amp;#34;:0,&amp;#34;n&amp;#34;:&amp;#34;s&amp;#34;,&amp;#34;v&amp;#34;:22.22222222222222,&amp;#34;e&amp;#34;:74},{&amp;#34;s&amp;#34;:0,&amp;#34;n&amp;#34;:&amp;#34;c&amp;#34;,&amp;#34;v&amp;#34;:&amp;#34;333333ff&amp;#34;,&amp;#34;e&amp;#34;:74},{&amp;#34;s&amp;#34;:0,&amp;#34;n&amp;#34;:&amp;#34;fc&amp;#34;,&amp;#34;v&amp;#34;:&amp;#34;Bold&amp;#34;,&amp;#34;e&amp;#34;:74},{&amp;#34;s&amp;#34;:0,&amp;#34;n&amp;#34;:&amp;#34;b&amp;#34;,&amp;#34;v&amp;#34;:true,&amp;#34;e&amp;#34;:74},{&amp;#34;s&amp;#34;:0,&amp;#34;n&amp;#34;:&amp;#34;fid&amp;#34;,&amp;#34;v&amp;#34;:5,&amp;#34;e&amp;#34;:74},{&amp;#34;s&amp;#34;:6,&amp;#34;n&amp;#34;:&amp;#34;a&amp;#34;,&amp;#34;v&amp;#34;:&amp;#34;left&amp;#34;},{&amp;#34;s&amp;#34;:7,&amp;#34;n&amp;#34;:&amp;#34;t&amp;#34;,&amp;#34;v&amp;#34;:&amp;#34;ul&amp;#34;},{&amp;#34;s&amp;#34;:7,&amp;#34;n&amp;#34;:&amp;#34;l&amp;#34;,&amp;#34;v&amp;#34;:&amp;#34;auto&amp;#34;},{&amp;#34;s&amp;#34;:7,&amp;#34;n&amp;#34;:&amp;#34;il&amp;#34;,&amp;#34;v&amp;#34;:22.22222222222222},{&amp;#34;s&amp;#34;:7,&amp;#34;n&amp;#34;:&amp;#34;fl&amp;#34;,&amp;#34;v&amp;#34;:22.22222222222222},{&amp;#34;s&amp;#34;:7,&amp;#34;n&amp;#34;:&amp;#34;a&amp;#34;,&amp;#34;v&amp;#34;:&amp;#34;left&amp;#34;},{&amp;#34;s&amp;#34;:23,&amp;#34;n&amp;#34;:&amp;#34;t&amp;#34;,&amp;#34;v&amp;#34;:&amp;#34;ul&amp;#34;},{&amp;#34;s&amp;#34;:23,&amp;#34;n&amp;#34;:&amp;#34;l&amp;#34;,&amp;#34;v&amp;#34;:&amp;#34;auto&amp;#34;},{&amp;#34;s&amp;#34;:23,&amp;#34;n&amp;#34;:&amp;#34;il&amp;#34;,&amp;#34;v&amp;#34;:22.22222222222222},{&amp;#34;s&amp;#34;:23,&amp;#34;n&amp;#34;:&amp;#34;fl&amp;#34;,&amp;#34;v&amp;#34;:22.22222222222222},{&amp;#34;s&amp;#34;:23,&amp;#34;n&amp;#34;:&amp;#34;a&amp;#34;,&amp;#34;v&amp;#34;:&amp;#34;left&amp;#34;},{&amp;#34;s&amp;#34;:33,&amp;#34;n&amp;#34;:&amp;#34;t&amp;#34;,&amp;#34;v&amp;#34;:&amp;#34;ul&amp;#34;},{&amp;#34;s&amp;#34;:33,&amp;#34;n&amp;#34;:&amp;#34;l&amp;#34;,&amp;#34;v&amp;#34;:&amp;#34;auto&amp;#34;},{&amp;#34;s&amp;#34;:33,&amp;#34;n&amp;#34;:&amp;#34;il&amp;#34;,&amp;#34;v&amp;#34;:22.22222222222222},{&amp;#34;s&amp;#34;:33,&amp;#34;n&amp;#34;:&amp;#34;fl&amp;#34;,&amp;#34;v&amp;#34;:22.22222222222222},{&amp;#34;s&amp;#34;:33,&amp;#34;n&amp;#34;:&amp;#34;a&amp;#34;,&amp;#34;v&amp;#34;:&amp;#34;left&amp;#34;},{&amp;#34;s&amp;#34;:43,&amp;#34;n&amp;#34;:&amp;#34;t&amp;#34;,&amp;#34;v&amp;#34;:&amp;#34;ul&amp;#34;},{&amp;#34;s&amp;#34;:43,&amp;#34;n&amp;#34;:&amp;#34;l&amp;#34;,&amp;#34;v&amp;#34;:&amp;#34;auto&amp;#34;},{&amp;#34;s&amp;#34;:43,&amp;#34;n&amp;#34;:&amp;#34;il&amp;#34;,&amp;#34;v&amp;#34;:22.22222222222222},{&amp;#34;s&amp;#34;:43,&amp;#34;n&amp;#34;:&amp;#34;fl&amp;#34;,&amp;#34;v&amp;#34;:22.22222222222222},{&amp;#34;s&amp;#34;:43,&amp;#34;n&amp;#34;:&amp;#34;a&amp;#34;,&amp;#34;v&amp;#34;:&amp;#34;left&amp;#34;},{&amp;#34;s&amp;#34;:56,&amp;#34;n&amp;#34;:&amp;#34;t&amp;#34;,&amp;#34;v&amp;#34;:&amp;#34;ul&amp;#34;},{&amp;#34;s&amp;#34;:56,&amp;#34;n&amp;#34;:&amp;#34;l&amp;#34;,&amp;#34;v&amp;#34;:&amp;#34;auto&amp;#34;},{&amp;#34;s&amp;#34;:56,&amp;#34;n&amp;#34;:&amp;#34;il&amp;#34;,&amp;#34;v&amp;#34;:22.22222222222222},{&amp;#34;s&amp;#34;:56,&amp;#34;n&amp;#34;:&amp;#34;fl&amp;#34;,&amp;#34;v&amp;#34;:22.22222222222222},{&amp;#34;s&amp;#34;:56,&amp;#34;n&amp;#34;:&amp;#34;a&amp;#34;,&amp;#34;v&amp;#34;:&amp;#34;left&amp;#34;}]}&quot;&gt;&lt;span style=&quot;font-size: 16.666666666666664px ; color: #333333 ; font-weight: bold&quot;&gt;API-1&lt;/span&gt;&lt;span style=&quot;font-size: 16.666666666666664px ; color: #333333 ; font-weight: bold ; text-align: left&quot;&gt;2&lt;br&gt;&lt;/span&gt;&lt;/span&gt;&lt;div style=&quot;font-size: 14px&quot; align=&quot;left&quot;&gt;&lt;span data-lucid-type=&quot;application/vnd.lucid.text&quot; data-lucid-content=&quot;{&amp;#34;t&amp;#34;:&amp;#34;HttpClient requests,\nPayment requests&amp;#34;,&amp;#34;m&amp;#34;:[{&amp;#34;s&amp;#34;:0,&amp;#34;n&amp;#34;:&amp;#34;t&amp;#34;,&amp;#34;v&amp;#34;:&amp;#34;ul&amp;#34;},{&amp;#34;s&amp;#34;:0,&amp;#34;n&amp;#34;:&amp;#34;l&amp;#34;,&amp;#34;v&amp;#34;:&amp;#34;auto&amp;#34;},{&amp;#34;s&amp;#34;:0,&amp;#34;n&amp;#34;:&amp;#34;il&amp;#34;,&amp;#34;v&amp;#34;:22.22222222222222},{&amp;#34;s&amp;#34;:0,&amp;#34;n&amp;#34;:&amp;#34;fl&amp;#34;,&amp;#34;v&amp;#34;:22.22222222222222},{&amp;#34;s&amp;#34;:0,&amp;#34;n&amp;#34;:&amp;#34;a&amp;#34;,&amp;#34;v&amp;#34;:&amp;#34;left&amp;#34;},{&amp;#34;s&amp;#34;:0,&amp;#34;n&amp;#34;:&amp;#34;s&amp;#34;,&amp;#34;v&amp;#34;:22.22222222222222,&amp;#34;e&amp;#34;:37},{&amp;#34;s&amp;#34;:0,&amp;#34;n&amp;#34;:&amp;#34;c&amp;#34;,&amp;#34;v&amp;#34;:&amp;#34;333333ff&amp;#34;,&amp;#34;e&amp;#34;:37},{&amp;#34;s&amp;#34;:0,&amp;#34;n&amp;#34;:&amp;#34;fc&amp;#34;,&amp;#34;v&amp;#34;:&amp;#34;Bold&amp;#34;,&amp;#34;e&amp;#34;:37},{&amp;#34;s&amp;#34;:0,&amp;#34;n&amp;#34;:&amp;#34;b&amp;#34;,&amp;#34;v&amp;#34;:true,&amp;#34;e&amp;#34;:37},{&amp;#34;s&amp;#34;:0,&amp;#34;n&amp;#34;:&amp;#34;fid&amp;#34;,&amp;#34;v&amp;#34;:5,&amp;#34;e&amp;#34;:37},{&amp;#34;s&amp;#34;:21,&amp;#34;n&amp;#34;:&amp;#34;t&amp;#34;,&amp;#34;v&amp;#34;:&amp;#34;ul&amp;#34;},{&amp;#34;s&amp;#34;:21,&amp;#34;n&amp;#34;:&amp;#34;l&amp;#34;,&amp;#34;v&amp;#34;:&amp;#34;auto&amp;#34;},{&amp;#34;s&amp;#34;:21,&amp;#34;n&amp;#34;:&amp;#34;il&amp;#34;,&amp;#34;v&amp;#34;:22.22222222222222},{&amp;#34;s&amp;#34;:21,&amp;#34;n&amp;#34;:&amp;#34;fl&amp;#34;,&amp;#34;v&amp;#34;:22.22222222222222},{&amp;#34;s&amp;#34;:21,&amp;#34;n&amp;#34;:&amp;#34;a&amp;#34;,&amp;#34;v&amp;#34;:&amp;#34;left&amp;#34;}]}&quot;&gt;&lt;span style=&quot;text-align: left ; color: rgb(51 , 51 , 51)&quot;&gt;HttpClient requests,&lt;br&gt;&lt;/span&gt;&lt;span style=&quot;text-align: left ; color: rgb(51 , 51 , 51)&quot;&gt;Payment requests&lt;/span&gt;&lt;/span&gt;&lt;span data-lucid-type=&quot;application/vnd.lucid.text&quot; data-lucid-content=&quot;{&amp;#34;t&amp;#34;:&amp;#34;API-1\n\nAuthentication,\nSettings,\nDatabase,\nPreferences,\nOther every thing &amp;#34;,&amp;#34;m&amp;#34;:[{&amp;#34;s&amp;#34;:0,&amp;#34;n&amp;#34;:&amp;#34;s&amp;#34;,&amp;#34;v&amp;#34;:22.22222222222222,&amp;#34;e&amp;#34;:74},{&amp;#34;s&amp;#34;:0,&amp;#34;n&amp;#34;:&amp;#34;c&amp;#34;,&amp;#34;v&amp;#34;:&amp;#34;333333ff&amp;#34;,&amp;#34;e&amp;#34;:74},{&amp;#34;s&amp;#34;:0,&amp;#34;n&amp;#34;:&amp;#34;fc&amp;#34;,&amp;#34;v&amp;#34;:&amp;#34;Bold&amp;#34;,&amp;#34;e&amp;#34;:74},{&amp;#34;s&amp;#34;:0,&amp;#34;n&amp;#34;:&amp;#34;b&amp;#34;,&amp;#34;v&amp;#34;:true,&amp;#34;e&amp;#34;:74},{&amp;#34;s&amp;#34;:0,&amp;#34;n&amp;#34;:&amp;#34;fid&amp;#34;,&amp;#34;v&amp;#34;:5,&amp;#34;e&amp;#34;:74},{&amp;#34;s&amp;#34;:6,&amp;#34;n&amp;#34;:&amp;#34;a&amp;#34;,&amp;#34;v&amp;#34;:&amp;#34;left&amp;#34;},{&amp;#34;s&amp;#34;:7,&amp;#34;n&amp;#34;:&amp;#34;t&amp;#34;,&amp;#34;v&amp;#34;:&amp;#34;ul&amp;#34;},{&amp;#34;s&amp;#34;:7,&amp;#34;n&amp;#34;:&amp;#34;l&amp;#34;,&amp;#34;v&amp;#34;:&amp;#34;auto&amp;#34;},{&amp;#34;s&amp;#34;:7,&amp;#34;n&amp;#34;:&amp;#34;il&amp;#34;,&amp;#34;v&amp;#34;:22.22222222222222},{&amp;#34;s&amp;#34;:7,&amp;#34;n&amp;#34;:&amp;#34;fl&amp;#34;,&amp;#34;v&amp;#34;:22.22222222222222},{&amp;#34;s&amp;#34;:7,&amp;#34;n&amp;#34;:&amp;#34;a&amp;#34;,&amp;#34;v&amp;#34;:&amp;#34;left&amp;#34;},{&amp;#34;s&amp;#34;:23,&amp;#34;n&amp;#34;:&amp;#34;t&amp;#34;,&amp;#34;v&amp;#34;:&amp;#34;ul&amp;#34;},{&amp;#34;s&amp;#34;:23,&amp;#34;n&amp;#34;:&amp;#34;l&amp;#34;,&amp;#34;v&amp;#34;:&amp;#34;auto&amp;#34;},{&amp;#34;s&amp;#34;:23,&amp;#34;n&amp;#34;:&amp;#34;il&amp;#34;,&amp;#34;v&amp;#34;:22.22222222222222},{&amp;#34;s&amp;#34;:23,&amp;#34;n&amp;#34;:&amp;#34;fl&amp;#34;,&amp;#34;v&amp;#34;:22.22222222222222},{&amp;#34;s&amp;#34;:23,&amp;#34;n&amp;#34;:&amp;#34;a&amp;#34;,&amp;#34;v&amp;#34;:&amp;#34;left&amp;#34;},{&amp;#34;s&amp;#34;:33,&amp;#34;n&amp;#34;:&amp;#34;t&amp;#34;,&amp;#34;v&amp;#34;:&amp;#34;ul&amp;#34;},{&amp;#34;s&amp;#34;:33,&amp;#34;n&amp;#34;:&amp;#34;l&amp;#34;,&amp;#34;v&amp;#34;:&amp;#34;auto&amp;#34;},{&amp;#34;s&amp;#34;:33,&amp;#34;n&amp;#34;:&amp;#34;il&amp;#34;,&amp;#34;v&amp;#34;:22.22222222222222},{&amp;#34;s&amp;#34;:33,&amp;#34;n&amp;#34;:&amp;#34;fl&amp;#34;,&amp;#34;v&amp;#34;:22.22222222222222},{&amp;#34;s&amp;#34;:33,&amp;#34;n&amp;#34;:&amp;#34;a&amp;#34;,&amp;#34;v&amp;#34;:&amp;#34;left&amp;#34;},{&amp;#34;s&amp;#34;:43,&amp;#34;n&amp;#34;:&amp;#34;t&amp;#34;,&amp;#34;v&amp;#34;:&amp;#34;ul&amp;#34;},{&amp;#34;s&amp;#34;:43,&amp;#34;n&amp;#34;:&amp;#34;l&amp;#34;,&amp;#34;v&amp;#34;:&amp;#34;auto&amp;#34;},{&amp;#34;s&amp;#34;:43,&amp;#34;n&amp;#34;:&amp;#34;il&amp;#34;,&amp;#34;v&amp;#34;:22.22222222222222},{&amp;#34;s&amp;#34;:43,&amp;#34;n&amp;#34;:&amp;#34;fl&amp;#34;,&amp;#34;v&amp;#34;:22.22222222222222},{&amp;#34;s&amp;#34;:43,&amp;#34;n&amp;#34;:&amp;#34;a&amp;#34;,&amp;#34;v&amp;#34;:&amp;#34;left&amp;#34;},{&amp;#34;s&amp;#34;:56,&amp;#34;n&amp;#34;:&amp;#34;t&amp;#34;,&amp;#34;v&amp;#34;:&amp;#34;ul&amp;#34;},{&amp;#34;s&amp;#34;:56,&amp;#34;n&amp;#34;:&amp;#34;l&amp;#34;,&amp;#34;v&amp;#34;:&amp;#34;auto&amp;#34;},{&amp;#34;s&amp;#34;:56,&amp;#34;n&amp;#34;:&amp;#34;il&amp;#34;,&amp;#34;v&amp;#34;:22.22222222222222},{&amp;#34;s&amp;#34;:56,&amp;#34;n&amp;#34;:&amp;#34;fl&amp;#34;,&amp;#34;v&amp;#34;:22.22222222222222},{&amp;#34;s&amp;#34;:56,&amp;#34;n&amp;#34;:&amp;#34;a&amp;#34;,&amp;#34;v&amp;#34;:&amp;#34;left&amp;#34;}]}&quot;&gt;&lt;span style=&quot;color: rgb(51 , 51 , 51)&quot;&gt;&lt;/span&gt;&lt;span style=&quot;color: rgb(51 , 51 , 51) ; font-weight: bold&quot;&gt; &lt;/span&gt;&lt;/span&gt;&lt;/div&gt;" style="rounded=0;whiteSpace=wrap;html=1;fontSize=18;verticalAlign=top;" parent="1" vertex="1">
          <mxGeometry x="480" y="430" width="150" height="150" as="geometry" />
        </mxCell>
        <mxCell id="FvyMITSBp_P54hjT1kFX-1" value="Mysql" style="shape=cylinder3;whiteSpace=wrap;html=1;boundedLbl=1;backgroundOutline=1;size=15;fontSize=17;verticalAlign=top;" parent="1" vertex="1">
          <mxGeometry x="350" y="465" width="60" height="80" as="geometry" />
        </mxCell>
        <mxCell id="hmz7pVN9PwRYDELIJkyp-3" style="edgeStyle=orthogonalEdgeStyle;rounded=0;orthogonalLoop=1;jettySize=auto;html=1;" parent="1" source="hmz7pVN9PwRYDELIJkyp-1" edge="1">
          <mxGeometry relative="1" as="geometry">
            <mxPoint x="460" y="1120" as="targetPoint" />
          </mxGeometry>
        </mxCell>
        <mxCell id="hmz7pVN9PwRYDELIJkyp-1" value="Client" style="rounded=0;whiteSpace=wrap;html=1;fontSize=18;fillColor=#f5f5f5;strokeColor=#666666;fontColor=#333333;" parent="1" vertex="1">
          <mxGeometry x="80" y="1090" width="130" height="60" as="geometry" />
        </mxCell>
        <mxCell id="hmz7pVN9PwRYDELIJkyp-9" style="edgeStyle=orthogonalEdgeStyle;rounded=0;orthogonalLoop=1;jettySize=auto;html=1;entryX=0.75;entryY=0;entryDx=0;entryDy=0;fontSize=15;" parent="1" target="hmz7pVN9PwRYDELIJkyp-5" edge="1">
          <mxGeometry relative="1" as="geometry">
            <mxPoint x="569" y="1150" as="sourcePoint" />
            <mxPoint x="569" y="1270" as="targetPoint" />
            <Array as="points">
              <mxPoint x="569" y="1265" />
              <mxPoint x="568" y="1265" />
            </Array>
          </mxGeometry>
        </mxCell>
        <mxCell id="hmz7pVN9PwRYDELIJkyp-14" style="edgeStyle=orthogonalEdgeStyle;rounded=0;orthogonalLoop=1;jettySize=auto;html=1;entryX=0;entryY=0.5;entryDx=0;entryDy=0;fontSize=15;" parent="1" source="hmz7pVN9PwRYDELIJkyp-2" target="hmz7pVN9PwRYDELIJkyp-12" edge="1">
          <mxGeometry relative="1" as="geometry" />
        </mxCell>
        <mxCell id="hmz7pVN9PwRYDELIJkyp-2" value="&lt;span data-lucid-type=&quot;application/vnd.lucid.text&quot; data-lucid-content=&quot;{&amp;#34;t&amp;#34;:&amp;#34;API-1\n\nAuthentication,\nSettings,\nDatabase,\nPreferences,\nOther every thing &amp;#34;,&amp;#34;m&amp;#34;:[{&amp;#34;s&amp;#34;:0,&amp;#34;n&amp;#34;:&amp;#34;s&amp;#34;,&amp;#34;v&amp;#34;:22.22222222222222,&amp;#34;e&amp;#34;:74},{&amp;#34;s&amp;#34;:0,&amp;#34;n&amp;#34;:&amp;#34;c&amp;#34;,&amp;#34;v&amp;#34;:&amp;#34;333333ff&amp;#34;,&amp;#34;e&amp;#34;:74},{&amp;#34;s&amp;#34;:0,&amp;#34;n&amp;#34;:&amp;#34;fc&amp;#34;,&amp;#34;v&amp;#34;:&amp;#34;Bold&amp;#34;,&amp;#34;e&amp;#34;:74},{&amp;#34;s&amp;#34;:0,&amp;#34;n&amp;#34;:&amp;#34;b&amp;#34;,&amp;#34;v&amp;#34;:true,&amp;#34;e&amp;#34;:74},{&amp;#34;s&amp;#34;:0,&amp;#34;n&amp;#34;:&amp;#34;fid&amp;#34;,&amp;#34;v&amp;#34;:5,&amp;#34;e&amp;#34;:74},{&amp;#34;s&amp;#34;:6,&amp;#34;n&amp;#34;:&amp;#34;a&amp;#34;,&amp;#34;v&amp;#34;:&amp;#34;left&amp;#34;},{&amp;#34;s&amp;#34;:7,&amp;#34;n&amp;#34;:&amp;#34;t&amp;#34;,&amp;#34;v&amp;#34;:&amp;#34;ul&amp;#34;},{&amp;#34;s&amp;#34;:7,&amp;#34;n&amp;#34;:&amp;#34;l&amp;#34;,&amp;#34;v&amp;#34;:&amp;#34;auto&amp;#34;},{&amp;#34;s&amp;#34;:7,&amp;#34;n&amp;#34;:&amp;#34;il&amp;#34;,&amp;#34;v&amp;#34;:22.22222222222222},{&amp;#34;s&amp;#34;:7,&amp;#34;n&amp;#34;:&amp;#34;fl&amp;#34;,&amp;#34;v&amp;#34;:22.22222222222222},{&amp;#34;s&amp;#34;:7,&amp;#34;n&amp;#34;:&amp;#34;a&amp;#34;,&amp;#34;v&amp;#34;:&amp;#34;left&amp;#34;},{&amp;#34;s&amp;#34;:23,&amp;#34;n&amp;#34;:&amp;#34;t&amp;#34;,&amp;#34;v&amp;#34;:&amp;#34;ul&amp;#34;},{&amp;#34;s&amp;#34;:23,&amp;#34;n&amp;#34;:&amp;#34;l&amp;#34;,&amp;#34;v&amp;#34;:&amp;#34;auto&amp;#34;},{&amp;#34;s&amp;#34;:23,&amp;#34;n&amp;#34;:&amp;#34;il&amp;#34;,&amp;#34;v&amp;#34;:22.22222222222222},{&amp;#34;s&amp;#34;:23,&amp;#34;n&amp;#34;:&amp;#34;fl&amp;#34;,&amp;#34;v&amp;#34;:22.22222222222222},{&amp;#34;s&amp;#34;:23,&amp;#34;n&amp;#34;:&amp;#34;a&amp;#34;,&amp;#34;v&amp;#34;:&amp;#34;left&amp;#34;},{&amp;#34;s&amp;#34;:33,&amp;#34;n&amp;#34;:&amp;#34;t&amp;#34;,&amp;#34;v&amp;#34;:&amp;#34;ul&amp;#34;},{&amp;#34;s&amp;#34;:33,&amp;#34;n&amp;#34;:&amp;#34;l&amp;#34;,&amp;#34;v&amp;#34;:&amp;#34;auto&amp;#34;},{&amp;#34;s&amp;#34;:33,&amp;#34;n&amp;#34;:&amp;#34;il&amp;#34;,&amp;#34;v&amp;#34;:22.22222222222222},{&amp;#34;s&amp;#34;:33,&amp;#34;n&amp;#34;:&amp;#34;fl&amp;#34;,&amp;#34;v&amp;#34;:22.22222222222222},{&amp;#34;s&amp;#34;:33,&amp;#34;n&amp;#34;:&amp;#34;a&amp;#34;,&amp;#34;v&amp;#34;:&amp;#34;left&amp;#34;},{&amp;#34;s&amp;#34;:43,&amp;#34;n&amp;#34;:&amp;#34;t&amp;#34;,&amp;#34;v&amp;#34;:&amp;#34;ul&amp;#34;},{&amp;#34;s&amp;#34;:43,&amp;#34;n&amp;#34;:&amp;#34;l&amp;#34;,&amp;#34;v&amp;#34;:&amp;#34;auto&amp;#34;},{&amp;#34;s&amp;#34;:43,&amp;#34;n&amp;#34;:&amp;#34;il&amp;#34;,&amp;#34;v&amp;#34;:22.22222222222222},{&amp;#34;s&amp;#34;:43,&amp;#34;n&amp;#34;:&amp;#34;fl&amp;#34;,&amp;#34;v&amp;#34;:22.22222222222222},{&amp;#34;s&amp;#34;:43,&amp;#34;n&amp;#34;:&amp;#34;a&amp;#34;,&amp;#34;v&amp;#34;:&amp;#34;left&amp;#34;},{&amp;#34;s&amp;#34;:56,&amp;#34;n&amp;#34;:&amp;#34;t&amp;#34;,&amp;#34;v&amp;#34;:&amp;#34;ul&amp;#34;},{&amp;#34;s&amp;#34;:56,&amp;#34;n&amp;#34;:&amp;#34;l&amp;#34;,&amp;#34;v&amp;#34;:&amp;#34;auto&amp;#34;},{&amp;#34;s&amp;#34;:56,&amp;#34;n&amp;#34;:&amp;#34;il&amp;#34;,&amp;#34;v&amp;#34;:22.22222222222222},{&amp;#34;s&amp;#34;:56,&amp;#34;n&amp;#34;:&amp;#34;fl&amp;#34;,&amp;#34;v&amp;#34;:22.22222222222222},{&amp;#34;s&amp;#34;:56,&amp;#34;n&amp;#34;:&amp;#34;a&amp;#34;,&amp;#34;v&amp;#34;:&amp;#34;left&amp;#34;}]}&quot;&gt;&lt;span style=&quot;font-size: 16.666666666666664px ; color: #333333 ; font-weight: bold&quot;&gt;API-2&lt;/span&gt;&lt;span style=&quot;font-size: 16.666666666666664px ; color: #333333 ; font-weight: bold ; text-align: left&quot;&gt;&lt;/span&gt;&lt;/span&gt;&lt;span data-lucid-type=&quot;application/vnd.lucid.text&quot; data-lucid-content=&quot;{&amp;#34;t&amp;#34;:&amp;#34;API-1\n\nAuthentication,\nSettings,\nDatabase,\nPreferences,\nOther every thing &amp;#34;,&amp;#34;m&amp;#34;:[{&amp;#34;s&amp;#34;:0,&amp;#34;n&amp;#34;:&amp;#34;s&amp;#34;,&amp;#34;v&amp;#34;:22.22222222222222,&amp;#34;e&amp;#34;:74},{&amp;#34;s&amp;#34;:0,&amp;#34;n&amp;#34;:&amp;#34;c&amp;#34;,&amp;#34;v&amp;#34;:&amp;#34;333333ff&amp;#34;,&amp;#34;e&amp;#34;:74},{&amp;#34;s&amp;#34;:0,&amp;#34;n&amp;#34;:&amp;#34;fc&amp;#34;,&amp;#34;v&amp;#34;:&amp;#34;Bold&amp;#34;,&amp;#34;e&amp;#34;:74},{&amp;#34;s&amp;#34;:0,&amp;#34;n&amp;#34;:&amp;#34;b&amp;#34;,&amp;#34;v&amp;#34;:true,&amp;#34;e&amp;#34;:74},{&amp;#34;s&amp;#34;:0,&amp;#34;n&amp;#34;:&amp;#34;fid&amp;#34;,&amp;#34;v&amp;#34;:5,&amp;#34;e&amp;#34;:74},{&amp;#34;s&amp;#34;:6,&amp;#34;n&amp;#34;:&amp;#34;a&amp;#34;,&amp;#34;v&amp;#34;:&amp;#34;left&amp;#34;},{&amp;#34;s&amp;#34;:7,&amp;#34;n&amp;#34;:&amp;#34;t&amp;#34;,&amp;#34;v&amp;#34;:&amp;#34;ul&amp;#34;},{&amp;#34;s&amp;#34;:7,&amp;#34;n&amp;#34;:&amp;#34;l&amp;#34;,&amp;#34;v&amp;#34;:&amp;#34;auto&amp;#34;},{&amp;#34;s&amp;#34;:7,&amp;#34;n&amp;#34;:&amp;#34;il&amp;#34;,&amp;#34;v&amp;#34;:22.22222222222222},{&amp;#34;s&amp;#34;:7,&amp;#34;n&amp;#34;:&amp;#34;fl&amp;#34;,&amp;#34;v&amp;#34;:22.22222222222222},{&amp;#34;s&amp;#34;:7,&amp;#34;n&amp;#34;:&amp;#34;a&amp;#34;,&amp;#34;v&amp;#34;:&amp;#34;left&amp;#34;},{&amp;#34;s&amp;#34;:23,&amp;#34;n&amp;#34;:&amp;#34;t&amp;#34;,&amp;#34;v&amp;#34;:&amp;#34;ul&amp;#34;},{&amp;#34;s&amp;#34;:23,&amp;#34;n&amp;#34;:&amp;#34;l&amp;#34;,&amp;#34;v&amp;#34;:&amp;#34;auto&amp;#34;},{&amp;#34;s&amp;#34;:23,&amp;#34;n&amp;#34;:&amp;#34;il&amp;#34;,&amp;#34;v&amp;#34;:22.22222222222222},{&amp;#34;s&amp;#34;:23,&amp;#34;n&amp;#34;:&amp;#34;fl&amp;#34;,&amp;#34;v&amp;#34;:22.22222222222222},{&amp;#34;s&amp;#34;:23,&amp;#34;n&amp;#34;:&amp;#34;a&amp;#34;,&amp;#34;v&amp;#34;:&amp;#34;left&amp;#34;},{&amp;#34;s&amp;#34;:33,&amp;#34;n&amp;#34;:&amp;#34;t&amp;#34;,&amp;#34;v&amp;#34;:&amp;#34;ul&amp;#34;},{&amp;#34;s&amp;#34;:33,&amp;#34;n&amp;#34;:&amp;#34;l&amp;#34;,&amp;#34;v&amp;#34;:&amp;#34;auto&amp;#34;},{&amp;#34;s&amp;#34;:33,&amp;#34;n&amp;#34;:&amp;#34;il&amp;#34;,&amp;#34;v&amp;#34;:22.22222222222222},{&amp;#34;s&amp;#34;:33,&amp;#34;n&amp;#34;:&amp;#34;fl&amp;#34;,&amp;#34;v&amp;#34;:22.22222222222222},{&amp;#34;s&amp;#34;:33,&amp;#34;n&amp;#34;:&amp;#34;a&amp;#34;,&amp;#34;v&amp;#34;:&amp;#34;left&amp;#34;},{&amp;#34;s&amp;#34;:43,&amp;#34;n&amp;#34;:&amp;#34;t&amp;#34;,&amp;#34;v&amp;#34;:&amp;#34;ul&amp;#34;},{&amp;#34;s&amp;#34;:43,&amp;#34;n&amp;#34;:&amp;#34;l&amp;#34;,&amp;#34;v&amp;#34;:&amp;#34;auto&amp;#34;},{&amp;#34;s&amp;#34;:43,&amp;#34;n&amp;#34;:&amp;#34;il&amp;#34;,&amp;#34;v&amp;#34;:22.22222222222222},{&amp;#34;s&amp;#34;:43,&amp;#34;n&amp;#34;:&amp;#34;fl&amp;#34;,&amp;#34;v&amp;#34;:22.22222222222222},{&amp;#34;s&amp;#34;:43,&amp;#34;n&amp;#34;:&amp;#34;a&amp;#34;,&amp;#34;v&amp;#34;:&amp;#34;left&amp;#34;},{&amp;#34;s&amp;#34;:56,&amp;#34;n&amp;#34;:&amp;#34;t&amp;#34;,&amp;#34;v&amp;#34;:&amp;#34;ul&amp;#34;},{&amp;#34;s&amp;#34;:56,&amp;#34;n&amp;#34;:&amp;#34;l&amp;#34;,&amp;#34;v&amp;#34;:&amp;#34;auto&amp;#34;},{&amp;#34;s&amp;#34;:56,&amp;#34;n&amp;#34;:&amp;#34;il&amp;#34;,&amp;#34;v&amp;#34;:22.22222222222222},{&amp;#34;s&amp;#34;:56,&amp;#34;n&amp;#34;:&amp;#34;fl&amp;#34;,&amp;#34;v&amp;#34;:22.22222222222222},{&amp;#34;s&amp;#34;:56,&amp;#34;n&amp;#34;:&amp;#34;a&amp;#34;,&amp;#34;v&amp;#34;:&amp;#34;left&amp;#34;}]}&quot;&gt;&lt;span style=&quot;color: rgb(51 , 51 , 51) ; font-weight: bold&quot;&gt;&lt;/span&gt;&lt;/span&gt;&lt;span data-lucid-type=&quot;application/vnd.lucid.text&quot; data-lucid-content=&quot;{&amp;#34;t&amp;#34;:&amp;#34;API-1\n\nAuthentication,\nSettings,\nDatabase,\nPreferences,\nOther every thing &amp;#34;,&amp;#34;m&amp;#34;:[{&amp;#34;s&amp;#34;:0,&amp;#34;n&amp;#34;:&amp;#34;s&amp;#34;,&amp;#34;v&amp;#34;:22.22222222222222,&amp;#34;e&amp;#34;:74},{&amp;#34;s&amp;#34;:0,&amp;#34;n&amp;#34;:&amp;#34;c&amp;#34;,&amp;#34;v&amp;#34;:&amp;#34;333333ff&amp;#34;,&amp;#34;e&amp;#34;:74},{&amp;#34;s&amp;#34;:0,&amp;#34;n&amp;#34;:&amp;#34;fc&amp;#34;,&amp;#34;v&amp;#34;:&amp;#34;Bold&amp;#34;,&amp;#34;e&amp;#34;:74},{&amp;#34;s&amp;#34;:0,&amp;#34;n&amp;#34;:&amp;#34;b&amp;#34;,&amp;#34;v&amp;#34;:true,&amp;#34;e&amp;#34;:74},{&amp;#34;s&amp;#34;:0,&amp;#34;n&amp;#34;:&amp;#34;fid&amp;#34;,&amp;#34;v&amp;#34;:5,&amp;#34;e&amp;#34;:74},{&amp;#34;s&amp;#34;:6,&amp;#34;n&amp;#34;:&amp;#34;a&amp;#34;,&amp;#34;v&amp;#34;:&amp;#34;left&amp;#34;},{&amp;#34;s&amp;#34;:7,&amp;#34;n&amp;#34;:&amp;#34;t&amp;#34;,&amp;#34;v&amp;#34;:&amp;#34;ul&amp;#34;},{&amp;#34;s&amp;#34;:7,&amp;#34;n&amp;#34;:&amp;#34;l&amp;#34;,&amp;#34;v&amp;#34;:&amp;#34;auto&amp;#34;},{&amp;#34;s&amp;#34;:7,&amp;#34;n&amp;#34;:&amp;#34;il&amp;#34;,&amp;#34;v&amp;#34;:22.22222222222222},{&amp;#34;s&amp;#34;:7,&amp;#34;n&amp;#34;:&amp;#34;fl&amp;#34;,&amp;#34;v&amp;#34;:22.22222222222222},{&amp;#34;s&amp;#34;:7,&amp;#34;n&amp;#34;:&amp;#34;a&amp;#34;,&amp;#34;v&amp;#34;:&amp;#34;left&amp;#34;},{&amp;#34;s&amp;#34;:23,&amp;#34;n&amp;#34;:&amp;#34;t&amp;#34;,&amp;#34;v&amp;#34;:&amp;#34;ul&amp;#34;},{&amp;#34;s&amp;#34;:23,&amp;#34;n&amp;#34;:&amp;#34;l&amp;#34;,&amp;#34;v&amp;#34;:&amp;#34;auto&amp;#34;},{&amp;#34;s&amp;#34;:23,&amp;#34;n&amp;#34;:&amp;#34;il&amp;#34;,&amp;#34;v&amp;#34;:22.22222222222222},{&amp;#34;s&amp;#34;:23,&amp;#34;n&amp;#34;:&amp;#34;fl&amp;#34;,&amp;#34;v&amp;#34;:22.22222222222222},{&amp;#34;s&amp;#34;:23,&amp;#34;n&amp;#34;:&amp;#34;a&amp;#34;,&amp;#34;v&amp;#34;:&amp;#34;left&amp;#34;},{&amp;#34;s&amp;#34;:33,&amp;#34;n&amp;#34;:&amp;#34;t&amp;#34;,&amp;#34;v&amp;#34;:&amp;#34;ul&amp;#34;},{&amp;#34;s&amp;#34;:33,&amp;#34;n&amp;#34;:&amp;#34;l&amp;#34;,&amp;#34;v&amp;#34;:&amp;#34;auto&amp;#34;},{&amp;#34;s&amp;#34;:33,&amp;#34;n&amp;#34;:&amp;#34;il&amp;#34;,&amp;#34;v&amp;#34;:22.22222222222222},{&amp;#34;s&amp;#34;:33,&amp;#34;n&amp;#34;:&amp;#34;fl&amp;#34;,&amp;#34;v&amp;#34;:22.22222222222222},{&amp;#34;s&amp;#34;:33,&amp;#34;n&amp;#34;:&amp;#34;a&amp;#34;,&amp;#34;v&amp;#34;:&amp;#34;left&amp;#34;},{&amp;#34;s&amp;#34;:43,&amp;#34;n&amp;#34;:&amp;#34;t&amp;#34;,&amp;#34;v&amp;#34;:&amp;#34;ul&amp;#34;},{&amp;#34;s&amp;#34;:43,&amp;#34;n&amp;#34;:&amp;#34;l&amp;#34;,&amp;#34;v&amp;#34;:&amp;#34;auto&amp;#34;},{&amp;#34;s&amp;#34;:43,&amp;#34;n&amp;#34;:&amp;#34;il&amp;#34;,&amp;#34;v&amp;#34;:22.22222222222222},{&amp;#34;s&amp;#34;:43,&amp;#34;n&amp;#34;:&amp;#34;fl&amp;#34;,&amp;#34;v&amp;#34;:22.22222222222222},{&amp;#34;s&amp;#34;:43,&amp;#34;n&amp;#34;:&amp;#34;a&amp;#34;,&amp;#34;v&amp;#34;:&amp;#34;left&amp;#34;},{&amp;#34;s&amp;#34;:56,&amp;#34;n&amp;#34;:&amp;#34;t&amp;#34;,&amp;#34;v&amp;#34;:&amp;#34;ul&amp;#34;},{&amp;#34;s&amp;#34;:56,&amp;#34;n&amp;#34;:&amp;#34;l&amp;#34;,&amp;#34;v&amp;#34;:&amp;#34;auto&amp;#34;},{&amp;#34;s&amp;#34;:56,&amp;#34;n&amp;#34;:&amp;#34;il&amp;#34;,&amp;#34;v&amp;#34;:22.22222222222222},{&amp;#34;s&amp;#34;:56,&amp;#34;n&amp;#34;:&amp;#34;fl&amp;#34;,&amp;#34;v&amp;#34;:22.22222222222222},{&amp;#34;s&amp;#34;:56,&amp;#34;n&amp;#34;:&amp;#34;a&amp;#34;,&amp;#34;v&amp;#34;:&amp;#34;left&amp;#34;}]}&quot;&gt;&lt;span style=&quot;font-size: 16.666666666666664px ; color: #333333 ; font-weight: bold ; text-align: left&quot;&gt;&lt;/span&gt;&lt;/span&gt;" style="rounded=0;whiteSpace=wrap;html=1;fontSize=18;verticalAlign=middle;fillColor=#fff2cc;strokeColor=#d6b656;" parent="1" vertex="1">
          <mxGeometry x="470" y="1090" width="130" height="60" as="geometry" />
        </mxCell>
        <mxCell id="hmz7pVN9PwRYDELIJkyp-4" value="Request with Token" style="text;html=1;align=center;verticalAlign=middle;resizable=0;points=[];autosize=1;strokeColor=none;fontStyle=1;fontSize=15;" parent="1" vertex="1">
          <mxGeometry x="250" y="1090" width="160" height="20" as="geometry" />
        </mxCell>
        <mxCell id="hmz7pVN9PwRYDELIJkyp-8" style="edgeStyle=orthogonalEdgeStyle;rounded=0;orthogonalLoop=1;jettySize=auto;html=1;entryX=0.5;entryY=1;entryDx=0;entryDy=0;fontSize=15;exitX=0.323;exitY=-0.05;exitDx=0;exitDy=0;exitPerimeter=0;" parent="1" source="hmz7pVN9PwRYDELIJkyp-5" edge="1">
          <mxGeometry relative="1" as="geometry">
            <mxPoint x="511" y="1370" as="sourcePoint" />
            <mxPoint x="511" y="1150" as="targetPoint" />
          </mxGeometry>
        </mxCell>
        <mxCell id="hmz7pVN9PwRYDELIJkyp-5" value="&lt;span data-lucid-type=&quot;application/vnd.lucid.text&quot; data-lucid-content=&quot;{&amp;#34;t&amp;#34;:&amp;#34;API-1\n\nAuthentication,\nSettings,\nDatabase,\nPreferences,\nOther every thing &amp;#34;,&amp;#34;m&amp;#34;:[{&amp;#34;s&amp;#34;:0,&amp;#34;n&amp;#34;:&amp;#34;s&amp;#34;,&amp;#34;v&amp;#34;:22.22222222222222,&amp;#34;e&amp;#34;:74},{&amp;#34;s&amp;#34;:0,&amp;#34;n&amp;#34;:&amp;#34;c&amp;#34;,&amp;#34;v&amp;#34;:&amp;#34;333333ff&amp;#34;,&amp;#34;e&amp;#34;:74},{&amp;#34;s&amp;#34;:0,&amp;#34;n&amp;#34;:&amp;#34;fc&amp;#34;,&amp;#34;v&amp;#34;:&amp;#34;Bold&amp;#34;,&amp;#34;e&amp;#34;:74},{&amp;#34;s&amp;#34;:0,&amp;#34;n&amp;#34;:&amp;#34;b&amp;#34;,&amp;#34;v&amp;#34;:true,&amp;#34;e&amp;#34;:74},{&amp;#34;s&amp;#34;:0,&amp;#34;n&amp;#34;:&amp;#34;fid&amp;#34;,&amp;#34;v&amp;#34;:5,&amp;#34;e&amp;#34;:74},{&amp;#34;s&amp;#34;:6,&amp;#34;n&amp;#34;:&amp;#34;a&amp;#34;,&amp;#34;v&amp;#34;:&amp;#34;left&amp;#34;},{&amp;#34;s&amp;#34;:7,&amp;#34;n&amp;#34;:&amp;#34;t&amp;#34;,&amp;#34;v&amp;#34;:&amp;#34;ul&amp;#34;},{&amp;#34;s&amp;#34;:7,&amp;#34;n&amp;#34;:&amp;#34;l&amp;#34;,&amp;#34;v&amp;#34;:&amp;#34;auto&amp;#34;},{&amp;#34;s&amp;#34;:7,&amp;#34;n&amp;#34;:&amp;#34;il&amp;#34;,&amp;#34;v&amp;#34;:22.22222222222222},{&amp;#34;s&amp;#34;:7,&amp;#34;n&amp;#34;:&amp;#34;fl&amp;#34;,&amp;#34;v&amp;#34;:22.22222222222222},{&amp;#34;s&amp;#34;:7,&amp;#34;n&amp;#34;:&amp;#34;a&amp;#34;,&amp;#34;v&amp;#34;:&amp;#34;left&amp;#34;},{&amp;#34;s&amp;#34;:23,&amp;#34;n&amp;#34;:&amp;#34;t&amp;#34;,&amp;#34;v&amp;#34;:&amp;#34;ul&amp;#34;},{&amp;#34;s&amp;#34;:23,&amp;#34;n&amp;#34;:&amp;#34;l&amp;#34;,&amp;#34;v&amp;#34;:&amp;#34;auto&amp;#34;},{&amp;#34;s&amp;#34;:23,&amp;#34;n&amp;#34;:&amp;#34;il&amp;#34;,&amp;#34;v&amp;#34;:22.22222222222222},{&amp;#34;s&amp;#34;:23,&amp;#34;n&amp;#34;:&amp;#34;fl&amp;#34;,&amp;#34;v&amp;#34;:22.22222222222222},{&amp;#34;s&amp;#34;:23,&amp;#34;n&amp;#34;:&amp;#34;a&amp;#34;,&amp;#34;v&amp;#34;:&amp;#34;left&amp;#34;},{&amp;#34;s&amp;#34;:33,&amp;#34;n&amp;#34;:&amp;#34;t&amp;#34;,&amp;#34;v&amp;#34;:&amp;#34;ul&amp;#34;},{&amp;#34;s&amp;#34;:33,&amp;#34;n&amp;#34;:&amp;#34;l&amp;#34;,&amp;#34;v&amp;#34;:&amp;#34;auto&amp;#34;},{&amp;#34;s&amp;#34;:33,&amp;#34;n&amp;#34;:&amp;#34;il&amp;#34;,&amp;#34;v&amp;#34;:22.22222222222222},{&amp;#34;s&amp;#34;:33,&amp;#34;n&amp;#34;:&amp;#34;fl&amp;#34;,&amp;#34;v&amp;#34;:22.22222222222222},{&amp;#34;s&amp;#34;:33,&amp;#34;n&amp;#34;:&amp;#34;a&amp;#34;,&amp;#34;v&amp;#34;:&amp;#34;left&amp;#34;},{&amp;#34;s&amp;#34;:43,&amp;#34;n&amp;#34;:&amp;#34;t&amp;#34;,&amp;#34;v&amp;#34;:&amp;#34;ul&amp;#34;},{&amp;#34;s&amp;#34;:43,&amp;#34;n&amp;#34;:&amp;#34;l&amp;#34;,&amp;#34;v&amp;#34;:&amp;#34;auto&amp;#34;},{&amp;#34;s&amp;#34;:43,&amp;#34;n&amp;#34;:&amp;#34;il&amp;#34;,&amp;#34;v&amp;#34;:22.22222222222222},{&amp;#34;s&amp;#34;:43,&amp;#34;n&amp;#34;:&amp;#34;fl&amp;#34;,&amp;#34;v&amp;#34;:22.22222222222222},{&amp;#34;s&amp;#34;:43,&amp;#34;n&amp;#34;:&amp;#34;a&amp;#34;,&amp;#34;v&amp;#34;:&amp;#34;left&amp;#34;},{&amp;#34;s&amp;#34;:56,&amp;#34;n&amp;#34;:&amp;#34;t&amp;#34;,&amp;#34;v&amp;#34;:&amp;#34;ul&amp;#34;},{&amp;#34;s&amp;#34;:56,&amp;#34;n&amp;#34;:&amp;#34;l&amp;#34;,&amp;#34;v&amp;#34;:&amp;#34;auto&amp;#34;},{&amp;#34;s&amp;#34;:56,&amp;#34;n&amp;#34;:&amp;#34;il&amp;#34;,&amp;#34;v&amp;#34;:22.22222222222222},{&amp;#34;s&amp;#34;:56,&amp;#34;n&amp;#34;:&amp;#34;fl&amp;#34;,&amp;#34;v&amp;#34;:22.22222222222222},{&amp;#34;s&amp;#34;:56,&amp;#34;n&amp;#34;:&amp;#34;a&amp;#34;,&amp;#34;v&amp;#34;:&amp;#34;left&amp;#34;}]}&quot;&gt;&lt;span style=&quot;font-size: 16.666666666666664px ; color: #333333 ; font-weight: bold&quot;&gt;API-1&lt;/span&gt;&lt;span style=&quot;font-size: 16.666666666666664px ; color: #333333 ; font-weight: bold ; text-align: left&quot;&gt;&lt;/span&gt;&lt;/span&gt;&lt;span data-lucid-type=&quot;application/vnd.lucid.text&quot; data-lucid-content=&quot;{&amp;#34;t&amp;#34;:&amp;#34;API-1\n\nAuthentication,\nSettings,\nDatabase,\nPreferences,\nOther every thing &amp;#34;,&amp;#34;m&amp;#34;:[{&amp;#34;s&amp;#34;:0,&amp;#34;n&amp;#34;:&amp;#34;s&amp;#34;,&amp;#34;v&amp;#34;:22.22222222222222,&amp;#34;e&amp;#34;:74},{&amp;#34;s&amp;#34;:0,&amp;#34;n&amp;#34;:&amp;#34;c&amp;#34;,&amp;#34;v&amp;#34;:&amp;#34;333333ff&amp;#34;,&amp;#34;e&amp;#34;:74},{&amp;#34;s&amp;#34;:0,&amp;#34;n&amp;#34;:&amp;#34;fc&amp;#34;,&amp;#34;v&amp;#34;:&amp;#34;Bold&amp;#34;,&amp;#34;e&amp;#34;:74},{&amp;#34;s&amp;#34;:0,&amp;#34;n&amp;#34;:&amp;#34;b&amp;#34;,&amp;#34;v&amp;#34;:true,&amp;#34;e&amp;#34;:74},{&amp;#34;s&amp;#34;:0,&amp;#34;n&amp;#34;:&amp;#34;fid&amp;#34;,&amp;#34;v&amp;#34;:5,&amp;#34;e&amp;#34;:74},{&amp;#34;s&amp;#34;:6,&amp;#34;n&amp;#34;:&amp;#34;a&amp;#34;,&amp;#34;v&amp;#34;:&amp;#34;left&amp;#34;},{&amp;#34;s&amp;#34;:7,&amp;#34;n&amp;#34;:&amp;#34;t&amp;#34;,&amp;#34;v&amp;#34;:&amp;#34;ul&amp;#34;},{&amp;#34;s&amp;#34;:7,&amp;#34;n&amp;#34;:&amp;#34;l&amp;#34;,&amp;#34;v&amp;#34;:&amp;#34;auto&amp;#34;},{&amp;#34;s&amp;#34;:7,&amp;#34;n&amp;#34;:&amp;#34;il&amp;#34;,&amp;#34;v&amp;#34;:22.22222222222222},{&amp;#34;s&amp;#34;:7,&amp;#34;n&amp;#34;:&amp;#34;fl&amp;#34;,&amp;#34;v&amp;#34;:22.22222222222222},{&amp;#34;s&amp;#34;:7,&amp;#34;n&amp;#34;:&amp;#34;a&amp;#34;,&amp;#34;v&amp;#34;:&amp;#34;left&amp;#34;},{&amp;#34;s&amp;#34;:23,&amp;#34;n&amp;#34;:&amp;#34;t&amp;#34;,&amp;#34;v&amp;#34;:&amp;#34;ul&amp;#34;},{&amp;#34;s&amp;#34;:23,&amp;#34;n&amp;#34;:&amp;#34;l&amp;#34;,&amp;#34;v&amp;#34;:&amp;#34;auto&amp;#34;},{&amp;#34;s&amp;#34;:23,&amp;#34;n&amp;#34;:&amp;#34;il&amp;#34;,&amp;#34;v&amp;#34;:22.22222222222222},{&amp;#34;s&amp;#34;:23,&amp;#34;n&amp;#34;:&amp;#34;fl&amp;#34;,&amp;#34;v&amp;#34;:22.22222222222222},{&amp;#34;s&amp;#34;:23,&amp;#34;n&amp;#34;:&amp;#34;a&amp;#34;,&amp;#34;v&amp;#34;:&amp;#34;left&amp;#34;},{&amp;#34;s&amp;#34;:33,&amp;#34;n&amp;#34;:&amp;#34;t&amp;#34;,&amp;#34;v&amp;#34;:&amp;#34;ul&amp;#34;},{&amp;#34;s&amp;#34;:33,&amp;#34;n&amp;#34;:&amp;#34;l&amp;#34;,&amp;#34;v&amp;#34;:&amp;#34;auto&amp;#34;},{&amp;#34;s&amp;#34;:33,&amp;#34;n&amp;#34;:&amp;#34;il&amp;#34;,&amp;#34;v&amp;#34;:22.22222222222222},{&amp;#34;s&amp;#34;:33,&amp;#34;n&amp;#34;:&amp;#34;fl&amp;#34;,&amp;#34;v&amp;#34;:22.22222222222222},{&amp;#34;s&amp;#34;:33,&amp;#34;n&amp;#34;:&amp;#34;a&amp;#34;,&amp;#34;v&amp;#34;:&amp;#34;left&amp;#34;},{&amp;#34;s&amp;#34;:43,&amp;#34;n&amp;#34;:&amp;#34;t&amp;#34;,&amp;#34;v&amp;#34;:&amp;#34;ul&amp;#34;},{&amp;#34;s&amp;#34;:43,&amp;#34;n&amp;#34;:&amp;#34;l&amp;#34;,&amp;#34;v&amp;#34;:&amp;#34;auto&amp;#34;},{&amp;#34;s&amp;#34;:43,&amp;#34;n&amp;#34;:&amp;#34;il&amp;#34;,&amp;#34;v&amp;#34;:22.22222222222222},{&amp;#34;s&amp;#34;:43,&amp;#34;n&amp;#34;:&amp;#34;fl&amp;#34;,&amp;#34;v&amp;#34;:22.22222222222222},{&amp;#34;s&amp;#34;:43,&amp;#34;n&amp;#34;:&amp;#34;a&amp;#34;,&amp;#34;v&amp;#34;:&amp;#34;left&amp;#34;},{&amp;#34;s&amp;#34;:56,&amp;#34;n&amp;#34;:&amp;#34;t&amp;#34;,&amp;#34;v&amp;#34;:&amp;#34;ul&amp;#34;},{&amp;#34;s&amp;#34;:56,&amp;#34;n&amp;#34;:&amp;#34;l&amp;#34;,&amp;#34;v&amp;#34;:&amp;#34;auto&amp;#34;},{&amp;#34;s&amp;#34;:56,&amp;#34;n&amp;#34;:&amp;#34;il&amp;#34;,&amp;#34;v&amp;#34;:22.22222222222222},{&amp;#34;s&amp;#34;:56,&amp;#34;n&amp;#34;:&amp;#34;fl&amp;#34;,&amp;#34;v&amp;#34;:22.22222222222222},{&amp;#34;s&amp;#34;:56,&amp;#34;n&amp;#34;:&amp;#34;a&amp;#34;,&amp;#34;v&amp;#34;:&amp;#34;left&amp;#34;}]}&quot;&gt;&lt;span style=&quot;color: rgb(51 , 51 , 51) ; font-weight: bold&quot;&gt;&lt;/span&gt;&lt;/span&gt;&lt;span data-lucid-type=&quot;application/vnd.lucid.text&quot; data-lucid-content=&quot;{&amp;#34;t&amp;#34;:&amp;#34;API-1\n\nAuthentication,\nSettings,\nDatabase,\nPreferences,\nOther every thing &amp;#34;,&amp;#34;m&amp;#34;:[{&amp;#34;s&amp;#34;:0,&amp;#34;n&amp;#34;:&amp;#34;s&amp;#34;,&amp;#34;v&amp;#34;:22.22222222222222,&amp;#34;e&amp;#34;:74},{&amp;#34;s&amp;#34;:0,&amp;#34;n&amp;#34;:&amp;#34;c&amp;#34;,&amp;#34;v&amp;#34;:&amp;#34;333333ff&amp;#34;,&amp;#34;e&amp;#34;:74},{&amp;#34;s&amp;#34;:0,&amp;#34;n&amp;#34;:&amp;#34;fc&amp;#34;,&amp;#34;v&amp;#34;:&amp;#34;Bold&amp;#34;,&amp;#34;e&amp;#34;:74},{&amp;#34;s&amp;#34;:0,&amp;#34;n&amp;#34;:&amp;#34;b&amp;#34;,&amp;#34;v&amp;#34;:true,&amp;#34;e&amp;#34;:74},{&amp;#34;s&amp;#34;:0,&amp;#34;n&amp;#34;:&amp;#34;fid&amp;#34;,&amp;#34;v&amp;#34;:5,&amp;#34;e&amp;#34;:74},{&amp;#34;s&amp;#34;:6,&amp;#34;n&amp;#34;:&amp;#34;a&amp;#34;,&amp;#34;v&amp;#34;:&amp;#34;left&amp;#34;},{&amp;#34;s&amp;#34;:7,&amp;#34;n&amp;#34;:&amp;#34;t&amp;#34;,&amp;#34;v&amp;#34;:&amp;#34;ul&amp;#34;},{&amp;#34;s&amp;#34;:7,&amp;#34;n&amp;#34;:&amp;#34;l&amp;#34;,&amp;#34;v&amp;#34;:&amp;#34;auto&amp;#34;},{&amp;#34;s&amp;#34;:7,&amp;#34;n&amp;#34;:&amp;#34;il&amp;#34;,&amp;#34;v&amp;#34;:22.22222222222222},{&amp;#34;s&amp;#34;:7,&amp;#34;n&amp;#34;:&amp;#34;fl&amp;#34;,&amp;#34;v&amp;#34;:22.22222222222222},{&amp;#34;s&amp;#34;:7,&amp;#34;n&amp;#34;:&amp;#34;a&amp;#34;,&amp;#34;v&amp;#34;:&amp;#34;left&amp;#34;},{&amp;#34;s&amp;#34;:23,&amp;#34;n&amp;#34;:&amp;#34;t&amp;#34;,&amp;#34;v&amp;#34;:&amp;#34;ul&amp;#34;},{&amp;#34;s&amp;#34;:23,&amp;#34;n&amp;#34;:&amp;#34;l&amp;#34;,&amp;#34;v&amp;#34;:&amp;#34;auto&amp;#34;},{&amp;#34;s&amp;#34;:23,&amp;#34;n&amp;#34;:&amp;#34;il&amp;#34;,&amp;#34;v&amp;#34;:22.22222222222222},{&amp;#34;s&amp;#34;:23,&amp;#34;n&amp;#34;:&amp;#34;fl&amp;#34;,&amp;#34;v&amp;#34;:22.22222222222222},{&amp;#34;s&amp;#34;:23,&amp;#34;n&amp;#34;:&amp;#34;a&amp;#34;,&amp;#34;v&amp;#34;:&amp;#34;left&amp;#34;},{&amp;#34;s&amp;#34;:33,&amp;#34;n&amp;#34;:&amp;#34;t&amp;#34;,&amp;#34;v&amp;#34;:&amp;#34;ul&amp;#34;},{&amp;#34;s&amp;#34;:33,&amp;#34;n&amp;#34;:&amp;#34;l&amp;#34;,&amp;#34;v&amp;#34;:&amp;#34;auto&amp;#34;},{&amp;#34;s&amp;#34;:33,&amp;#34;n&amp;#34;:&amp;#34;il&amp;#34;,&amp;#34;v&amp;#34;:22.22222222222222},{&amp;#34;s&amp;#34;:33,&amp;#34;n&amp;#34;:&amp;#34;fl&amp;#34;,&amp;#34;v&amp;#34;:22.22222222222222},{&amp;#34;s&amp;#34;:33,&amp;#34;n&amp;#34;:&amp;#34;a&amp;#34;,&amp;#34;v&amp;#34;:&amp;#34;left&amp;#34;},{&amp;#34;s&amp;#34;:43,&amp;#34;n&amp;#34;:&amp;#34;t&amp;#34;,&amp;#34;v&amp;#34;:&amp;#34;ul&amp;#34;},{&amp;#34;s&amp;#34;:43,&amp;#34;n&amp;#34;:&amp;#34;l&amp;#34;,&amp;#34;v&amp;#34;:&amp;#34;auto&amp;#34;},{&amp;#34;s&amp;#34;:43,&amp;#34;n&amp;#34;:&amp;#34;il&amp;#34;,&amp;#34;v&amp;#34;:22.22222222222222},{&amp;#34;s&amp;#34;:43,&amp;#34;n&amp;#34;:&amp;#34;fl&amp;#34;,&amp;#34;v&amp;#34;:22.22222222222222},{&amp;#34;s&amp;#34;:43,&amp;#34;n&amp;#34;:&amp;#34;a&amp;#34;,&amp;#34;v&amp;#34;:&amp;#34;left&amp;#34;},{&amp;#34;s&amp;#34;:56,&amp;#34;n&amp;#34;:&amp;#34;t&amp;#34;,&amp;#34;v&amp;#34;:&amp;#34;ul&amp;#34;},{&amp;#34;s&amp;#34;:56,&amp;#34;n&amp;#34;:&amp;#34;l&amp;#34;,&amp;#34;v&amp;#34;:&amp;#34;auto&amp;#34;},{&amp;#34;s&amp;#34;:56,&amp;#34;n&amp;#34;:&amp;#34;il&amp;#34;,&amp;#34;v&amp;#34;:22.22222222222222},{&amp;#34;s&amp;#34;:56,&amp;#34;n&amp;#34;:&amp;#34;fl&amp;#34;,&amp;#34;v&amp;#34;:22.22222222222222},{&amp;#34;s&amp;#34;:56,&amp;#34;n&amp;#34;:&amp;#34;a&amp;#34;,&amp;#34;v&amp;#34;:&amp;#34;left&amp;#34;}]}&quot;&gt;&lt;span style=&quot;font-size: 16.666666666666664px ; color: #333333 ; font-weight: bold ; text-align: left&quot;&gt;&lt;/span&gt;&lt;/span&gt;" style="rounded=0;whiteSpace=wrap;html=1;fontSize=18;verticalAlign=middle;fillColor=#f8cecc;strokeColor=#b85450;" parent="1" vertex="1">
          <mxGeometry x="470" y="1380" width="130" height="60" as="geometry" />
        </mxCell>
        <mxCell id="hmz7pVN9PwRYDELIJkyp-10" value="&lt;div&gt;Request&lt;/div&gt;&lt;div&gt; with &lt;br&gt;&lt;/div&gt;&lt;div&gt;Token&lt;/div&gt;" style="text;html=1;align=center;verticalAlign=middle;resizable=0;points=[];autosize=1;strokeColor=none;fontStyle=1;fontSize=15;" parent="1" vertex="1">
          <mxGeometry x="572" y="1220" width="70" height="60" as="geometry" />
        </mxCell>
        <mxCell id="hmz7pVN9PwRYDELIJkyp-11" value="&lt;div&gt;Response&lt;/div&gt;&lt;div&gt; with&lt;/div&gt;&lt;div&gt; Authorization &lt;br&gt;&lt;/div&gt;&lt;div&gt;and &lt;br&gt;&lt;/div&gt;&lt;div&gt;Decryptrd &lt;br&gt;&lt;/div&gt;&lt;div&gt;Acces &lt;br&gt;&lt;/div&gt;&lt;div&gt;Tokens&lt;br&gt;&lt;/div&gt;" style="text;html=1;align=center;verticalAlign=middle;resizable=0;points=[];autosize=1;strokeColor=none;fontStyle=1;fontSize=15;" parent="1" vertex="1">
          <mxGeometry x="400" y="1210" width="110" height="130" as="geometry" />
        </mxCell>
        <mxCell id="hmz7pVN9PwRYDELIJkyp-12" value="&lt;div&gt;Third Party &lt;br&gt;&lt;/div&gt;&lt;div&gt;App&lt;/div&gt;" style="rounded=0;whiteSpace=wrap;html=1;fontSize=18;verticalAlign=middle;fillColor=#e1d5e7;strokeColor=#9673a6;" parent="1" vertex="1">
          <mxGeometry x="840" y="1090" width="130" height="60" as="geometry" />
        </mxCell>
        <mxCell id="hmz7pVN9PwRYDELIJkyp-15" value="Request with Access Token" style="text;html=1;align=center;verticalAlign=middle;resizable=0;points=[];autosize=1;strokeColor=none;fontStyle=1;fontSize=15;" parent="1" vertex="1">
          <mxGeometry x="610" y="1093" width="210" height="20" as="geometry" />
        </mxCell>
        <mxCell id="hmz7pVN9PwRYDELIJkyp-16" value="Response with Data" style="text;html=1;align=center;verticalAlign=middle;resizable=0;points=[];autosize=1;strokeColor=none;fontStyle=1;fontSize=15;" parent="1" vertex="1">
          <mxGeometry x="642" y="1128" width="160" height="20" as="geometry" />
        </mxCell>
        <mxCell id="hmz7pVN9PwRYDELIJkyp-17" value="Response with Data" style="text;html=1;align=center;verticalAlign=middle;resizable=0;points=[];autosize=1;strokeColor=none;fontStyle=1;fontSize=15;" parent="1" vertex="1">
          <mxGeometry x="254" y="1130" width="160" height="20" as="geometry" />
        </mxCell>
        <mxCell id="hmz7pVN9PwRYDELIJkyp-20" style="edgeStyle=orthogonalEdgeStyle;rounded=0;orthogonalLoop=1;jettySize=auto;html=1;entryX=0;entryY=0.5;entryDx=0;entryDy=0;fontSize=15;" parent="1" source="hmz7pVN9PwRYDELIJkyp-18" target="hmz7pVN9PwRYDELIJkyp-19" edge="1">
          <mxGeometry relative="1" as="geometry" />
        </mxCell>
        <mxCell id="hmz7pVN9PwRYDELIJkyp-18" value="Client" style="rounded=0;whiteSpace=wrap;html=1;fontSize=18;fillColor=#f5f5f5;strokeColor=#666666;fontColor=#333333;" parent="1" vertex="1">
          <mxGeometry x="80" y="890" width="130" height="60" as="geometry" />
        </mxCell>
        <mxCell id="hmz7pVN9PwRYDELIJkyp-19" value="&lt;span data-lucid-type=&quot;application/vnd.lucid.text&quot; data-lucid-content=&quot;{&amp;#34;t&amp;#34;:&amp;#34;API-1\n\nAuthentication,\nSettings,\nDatabase,\nPreferences,\nOther every thing &amp;#34;,&amp;#34;m&amp;#34;:[{&amp;#34;s&amp;#34;:0,&amp;#34;n&amp;#34;:&amp;#34;s&amp;#34;,&amp;#34;v&amp;#34;:22.22222222222222,&amp;#34;e&amp;#34;:74},{&amp;#34;s&amp;#34;:0,&amp;#34;n&amp;#34;:&amp;#34;c&amp;#34;,&amp;#34;v&amp;#34;:&amp;#34;333333ff&amp;#34;,&amp;#34;e&amp;#34;:74},{&amp;#34;s&amp;#34;:0,&amp;#34;n&amp;#34;:&amp;#34;fc&amp;#34;,&amp;#34;v&amp;#34;:&amp;#34;Bold&amp;#34;,&amp;#34;e&amp;#34;:74},{&amp;#34;s&amp;#34;:0,&amp;#34;n&amp;#34;:&amp;#34;b&amp;#34;,&amp;#34;v&amp;#34;:true,&amp;#34;e&amp;#34;:74},{&amp;#34;s&amp;#34;:0,&amp;#34;n&amp;#34;:&amp;#34;fid&amp;#34;,&amp;#34;v&amp;#34;:5,&amp;#34;e&amp;#34;:74},{&amp;#34;s&amp;#34;:6,&amp;#34;n&amp;#34;:&amp;#34;a&amp;#34;,&amp;#34;v&amp;#34;:&amp;#34;left&amp;#34;},{&amp;#34;s&amp;#34;:7,&amp;#34;n&amp;#34;:&amp;#34;t&amp;#34;,&amp;#34;v&amp;#34;:&amp;#34;ul&amp;#34;},{&amp;#34;s&amp;#34;:7,&amp;#34;n&amp;#34;:&amp;#34;l&amp;#34;,&amp;#34;v&amp;#34;:&amp;#34;auto&amp;#34;},{&amp;#34;s&amp;#34;:7,&amp;#34;n&amp;#34;:&amp;#34;il&amp;#34;,&amp;#34;v&amp;#34;:22.22222222222222},{&amp;#34;s&amp;#34;:7,&amp;#34;n&amp;#34;:&amp;#34;fl&amp;#34;,&amp;#34;v&amp;#34;:22.22222222222222},{&amp;#34;s&amp;#34;:7,&amp;#34;n&amp;#34;:&amp;#34;a&amp;#34;,&amp;#34;v&amp;#34;:&amp;#34;left&amp;#34;},{&amp;#34;s&amp;#34;:23,&amp;#34;n&amp;#34;:&amp;#34;t&amp;#34;,&amp;#34;v&amp;#34;:&amp;#34;ul&amp;#34;},{&amp;#34;s&amp;#34;:23,&amp;#34;n&amp;#34;:&amp;#34;l&amp;#34;,&amp;#34;v&amp;#34;:&amp;#34;auto&amp;#34;},{&amp;#34;s&amp;#34;:23,&amp;#34;n&amp;#34;:&amp;#34;il&amp;#34;,&amp;#34;v&amp;#34;:22.22222222222222},{&amp;#34;s&amp;#34;:23,&amp;#34;n&amp;#34;:&amp;#34;fl&amp;#34;,&amp;#34;v&amp;#34;:22.22222222222222},{&amp;#34;s&amp;#34;:23,&amp;#34;n&amp;#34;:&amp;#34;a&amp;#34;,&amp;#34;v&amp;#34;:&amp;#34;left&amp;#34;},{&amp;#34;s&amp;#34;:33,&amp;#34;n&amp;#34;:&amp;#34;t&amp;#34;,&amp;#34;v&amp;#34;:&amp;#34;ul&amp;#34;},{&amp;#34;s&amp;#34;:33,&amp;#34;n&amp;#34;:&amp;#34;l&amp;#34;,&amp;#34;v&amp;#34;:&amp;#34;auto&amp;#34;},{&amp;#34;s&amp;#34;:33,&amp;#34;n&amp;#34;:&amp;#34;il&amp;#34;,&amp;#34;v&amp;#34;:22.22222222222222},{&amp;#34;s&amp;#34;:33,&amp;#34;n&amp;#34;:&amp;#34;fl&amp;#34;,&amp;#34;v&amp;#34;:22.22222222222222},{&amp;#34;s&amp;#34;:33,&amp;#34;n&amp;#34;:&amp;#34;a&amp;#34;,&amp;#34;v&amp;#34;:&amp;#34;left&amp;#34;},{&amp;#34;s&amp;#34;:43,&amp;#34;n&amp;#34;:&amp;#34;t&amp;#34;,&amp;#34;v&amp;#34;:&amp;#34;ul&amp;#34;},{&amp;#34;s&amp;#34;:43,&amp;#34;n&amp;#34;:&amp;#34;l&amp;#34;,&amp;#34;v&amp;#34;:&amp;#34;auto&amp;#34;},{&amp;#34;s&amp;#34;:43,&amp;#34;n&amp;#34;:&amp;#34;il&amp;#34;,&amp;#34;v&amp;#34;:22.22222222222222},{&amp;#34;s&amp;#34;:43,&amp;#34;n&amp;#34;:&amp;#34;fl&amp;#34;,&amp;#34;v&amp;#34;:22.22222222222222},{&amp;#34;s&amp;#34;:43,&amp;#34;n&amp;#34;:&amp;#34;a&amp;#34;,&amp;#34;v&amp;#34;:&amp;#34;left&amp;#34;},{&amp;#34;s&amp;#34;:56,&amp;#34;n&amp;#34;:&amp;#34;t&amp;#34;,&amp;#34;v&amp;#34;:&amp;#34;ul&amp;#34;},{&amp;#34;s&amp;#34;:56,&amp;#34;n&amp;#34;:&amp;#34;l&amp;#34;,&amp;#34;v&amp;#34;:&amp;#34;auto&amp;#34;},{&amp;#34;s&amp;#34;:56,&amp;#34;n&amp;#34;:&amp;#34;il&amp;#34;,&amp;#34;v&amp;#34;:22.22222222222222},{&amp;#34;s&amp;#34;:56,&amp;#34;n&amp;#34;:&amp;#34;fl&amp;#34;,&amp;#34;v&amp;#34;:22.22222222222222},{&amp;#34;s&amp;#34;:56,&amp;#34;n&amp;#34;:&amp;#34;a&amp;#34;,&amp;#34;v&amp;#34;:&amp;#34;left&amp;#34;}]}&quot;&gt;&lt;span style=&quot;font-size: 16.666666666666664px ; color: #333333 ; font-weight: bold&quot;&gt;API-1&lt;/span&gt;&lt;span style=&quot;font-size: 16.666666666666664px ; color: #333333 ; font-weight: bold ; text-align: left&quot;&gt;&lt;/span&gt;&lt;/span&gt;&lt;span data-lucid-type=&quot;application/vnd.lucid.text&quot; data-lucid-content=&quot;{&amp;#34;t&amp;#34;:&amp;#34;API-1\n\nAuthentication,\nSettings,\nDatabase,\nPreferences,\nOther every thing &amp;#34;,&amp;#34;m&amp;#34;:[{&amp;#34;s&amp;#34;:0,&amp;#34;n&amp;#34;:&amp;#34;s&amp;#34;,&amp;#34;v&amp;#34;:22.22222222222222,&amp;#34;e&amp;#34;:74},{&amp;#34;s&amp;#34;:0,&amp;#34;n&amp;#34;:&amp;#34;c&amp;#34;,&amp;#34;v&amp;#34;:&amp;#34;333333ff&amp;#34;,&amp;#34;e&amp;#34;:74},{&amp;#34;s&amp;#34;:0,&amp;#34;n&amp;#34;:&amp;#34;fc&amp;#34;,&amp;#34;v&amp;#34;:&amp;#34;Bold&amp;#34;,&amp;#34;e&amp;#34;:74},{&amp;#34;s&amp;#34;:0,&amp;#34;n&amp;#34;:&amp;#34;b&amp;#34;,&amp;#34;v&amp;#34;:true,&amp;#34;e&amp;#34;:74},{&amp;#34;s&amp;#34;:0,&amp;#34;n&amp;#34;:&amp;#34;fid&amp;#34;,&amp;#34;v&amp;#34;:5,&amp;#34;e&amp;#34;:74},{&amp;#34;s&amp;#34;:6,&amp;#34;n&amp;#34;:&amp;#34;a&amp;#34;,&amp;#34;v&amp;#34;:&amp;#34;left&amp;#34;},{&amp;#34;s&amp;#34;:7,&amp;#34;n&amp;#34;:&amp;#34;t&amp;#34;,&amp;#34;v&amp;#34;:&amp;#34;ul&amp;#34;},{&amp;#34;s&amp;#34;:7,&amp;#34;n&amp;#34;:&amp;#34;l&amp;#34;,&amp;#34;v&amp;#34;:&amp;#34;auto&amp;#34;},{&amp;#34;s&amp;#34;:7,&amp;#34;n&amp;#34;:&amp;#34;il&amp;#34;,&amp;#34;v&amp;#34;:22.22222222222222},{&amp;#34;s&amp;#34;:7,&amp;#34;n&amp;#34;:&amp;#34;fl&amp;#34;,&amp;#34;v&amp;#34;:22.22222222222222},{&amp;#34;s&amp;#34;:7,&amp;#34;n&amp;#34;:&amp;#34;a&amp;#34;,&amp;#34;v&amp;#34;:&amp;#34;left&amp;#34;},{&amp;#34;s&amp;#34;:23,&amp;#34;n&amp;#34;:&amp;#34;t&amp;#34;,&amp;#34;v&amp;#34;:&amp;#34;ul&amp;#34;},{&amp;#34;s&amp;#34;:23,&amp;#34;n&amp;#34;:&amp;#34;l&amp;#34;,&amp;#34;v&amp;#34;:&amp;#34;auto&amp;#34;},{&amp;#34;s&amp;#34;:23,&amp;#34;n&amp;#34;:&amp;#34;il&amp;#34;,&amp;#34;v&amp;#34;:22.22222222222222},{&amp;#34;s&amp;#34;:23,&amp;#34;n&amp;#34;:&amp;#34;fl&amp;#34;,&amp;#34;v&amp;#34;:22.22222222222222},{&amp;#34;s&amp;#34;:23,&amp;#34;n&amp;#34;:&amp;#34;a&amp;#34;,&amp;#34;v&amp;#34;:&amp;#34;left&amp;#34;},{&amp;#34;s&amp;#34;:33,&amp;#34;n&amp;#34;:&amp;#34;t&amp;#34;,&amp;#34;v&amp;#34;:&amp;#34;ul&amp;#34;},{&amp;#34;s&amp;#34;:33,&amp;#34;n&amp;#34;:&amp;#34;l&amp;#34;,&amp;#34;v&amp;#34;:&amp;#34;auto&amp;#34;},{&amp;#34;s&amp;#34;:33,&amp;#34;n&amp;#34;:&amp;#34;il&amp;#34;,&amp;#34;v&amp;#34;:22.22222222222222},{&amp;#34;s&amp;#34;:33,&amp;#34;n&amp;#34;:&amp;#34;fl&amp;#34;,&amp;#34;v&amp;#34;:22.22222222222222},{&amp;#34;s&amp;#34;:33,&amp;#34;n&amp;#34;:&amp;#34;a&amp;#34;,&amp;#34;v&amp;#34;:&amp;#34;left&amp;#34;},{&amp;#34;s&amp;#34;:43,&amp;#34;n&amp;#34;:&amp;#34;t&amp;#34;,&amp;#34;v&amp;#34;:&amp;#34;ul&amp;#34;},{&amp;#34;s&amp;#34;:43,&amp;#34;n&amp;#34;:&amp;#34;l&amp;#34;,&amp;#34;v&amp;#34;:&amp;#34;auto&amp;#34;},{&amp;#34;s&amp;#34;:43,&amp;#34;n&amp;#34;:&amp;#34;il&amp;#34;,&amp;#34;v&amp;#34;:22.22222222222222},{&amp;#34;s&amp;#34;:43,&amp;#34;n&amp;#34;:&amp;#34;fl&amp;#34;,&amp;#34;v&amp;#34;:22.22222222222222},{&amp;#34;s&amp;#34;:43,&amp;#34;n&amp;#34;:&amp;#34;a&amp;#34;,&amp;#34;v&amp;#34;:&amp;#34;left&amp;#34;},{&amp;#34;s&amp;#34;:56,&amp;#34;n&amp;#34;:&amp;#34;t&amp;#34;,&amp;#34;v&amp;#34;:&amp;#34;ul&amp;#34;},{&amp;#34;s&amp;#34;:56,&amp;#34;n&amp;#34;:&amp;#34;l&amp;#34;,&amp;#34;v&amp;#34;:&amp;#34;auto&amp;#34;},{&amp;#34;s&amp;#34;:56,&amp;#34;n&amp;#34;:&amp;#34;il&amp;#34;,&amp;#34;v&amp;#34;:22.22222222222222},{&amp;#34;s&amp;#34;:56,&amp;#34;n&amp;#34;:&amp;#34;fl&amp;#34;,&amp;#34;v&amp;#34;:22.22222222222222},{&amp;#34;s&amp;#34;:56,&amp;#34;n&amp;#34;:&amp;#34;a&amp;#34;,&amp;#34;v&amp;#34;:&amp;#34;left&amp;#34;}]}&quot;&gt;&lt;span style=&quot;color: rgb(51 , 51 , 51) ; font-weight: bold&quot;&gt;&lt;/span&gt;&lt;/span&gt;&lt;span data-lucid-type=&quot;application/vnd.lucid.text&quot; data-lucid-content=&quot;{&amp;#34;t&amp;#34;:&amp;#34;API-1\n\nAuthentication,\nSettings,\nDatabase,\nPreferences,\nOther every thing &amp;#34;,&amp;#34;m&amp;#34;:[{&amp;#34;s&amp;#34;:0,&amp;#34;n&amp;#34;:&amp;#34;s&amp;#34;,&amp;#34;v&amp;#34;:22.22222222222222,&amp;#34;e&amp;#34;:74},{&amp;#34;s&amp;#34;:0,&amp;#34;n&amp;#34;:&amp;#34;c&amp;#34;,&amp;#34;v&amp;#34;:&amp;#34;333333ff&amp;#34;,&amp;#34;e&amp;#34;:74},{&amp;#34;s&amp;#34;:0,&amp;#34;n&amp;#34;:&amp;#34;fc&amp;#34;,&amp;#34;v&amp;#34;:&amp;#34;Bold&amp;#34;,&amp;#34;e&amp;#34;:74},{&amp;#34;s&amp;#34;:0,&amp;#34;n&amp;#34;:&amp;#34;b&amp;#34;,&amp;#34;v&amp;#34;:true,&amp;#34;e&amp;#34;:74},{&amp;#34;s&amp;#34;:0,&amp;#34;n&amp;#34;:&amp;#34;fid&amp;#34;,&amp;#34;v&amp;#34;:5,&amp;#34;e&amp;#34;:74},{&amp;#34;s&amp;#34;:6,&amp;#34;n&amp;#34;:&amp;#34;a&amp;#34;,&amp;#34;v&amp;#34;:&amp;#34;left&amp;#34;},{&amp;#34;s&amp;#34;:7,&amp;#34;n&amp;#34;:&amp;#34;t&amp;#34;,&amp;#34;v&amp;#34;:&amp;#34;ul&amp;#34;},{&amp;#34;s&amp;#34;:7,&amp;#34;n&amp;#34;:&amp;#34;l&amp;#34;,&amp;#34;v&amp;#34;:&amp;#34;auto&amp;#34;},{&amp;#34;s&amp;#34;:7,&amp;#34;n&amp;#34;:&amp;#34;il&amp;#34;,&amp;#34;v&amp;#34;:22.22222222222222},{&amp;#34;s&amp;#34;:7,&amp;#34;n&amp;#34;:&amp;#34;fl&amp;#34;,&amp;#34;v&amp;#34;:22.22222222222222},{&amp;#34;s&amp;#34;:7,&amp;#34;n&amp;#34;:&amp;#34;a&amp;#34;,&amp;#34;v&amp;#34;:&amp;#34;left&amp;#34;},{&amp;#34;s&amp;#34;:23,&amp;#34;n&amp;#34;:&amp;#34;t&amp;#34;,&amp;#34;v&amp;#34;:&amp;#34;ul&amp;#34;},{&amp;#34;s&amp;#34;:23,&amp;#34;n&amp;#34;:&amp;#34;l&amp;#34;,&amp;#34;v&amp;#34;:&amp;#34;auto&amp;#34;},{&amp;#34;s&amp;#34;:23,&amp;#34;n&amp;#34;:&amp;#34;il&amp;#34;,&amp;#34;v&amp;#34;:22.22222222222222},{&amp;#34;s&amp;#34;:23,&amp;#34;n&amp;#34;:&amp;#34;fl&amp;#34;,&amp;#34;v&amp;#34;:22.22222222222222},{&amp;#34;s&amp;#34;:23,&amp;#34;n&amp;#34;:&amp;#34;a&amp;#34;,&amp;#34;v&amp;#34;:&amp;#34;left&amp;#34;},{&amp;#34;s&amp;#34;:33,&amp;#34;n&amp;#34;:&amp;#34;t&amp;#34;,&amp;#34;v&amp;#34;:&amp;#34;ul&amp;#34;},{&amp;#34;s&amp;#34;:33,&amp;#34;n&amp;#34;:&amp;#34;l&amp;#34;,&amp;#34;v&amp;#34;:&amp;#34;auto&amp;#34;},{&amp;#34;s&amp;#34;:33,&amp;#34;n&amp;#34;:&amp;#34;il&amp;#34;,&amp;#34;v&amp;#34;:22.22222222222222},{&amp;#34;s&amp;#34;:33,&amp;#34;n&amp;#34;:&amp;#34;fl&amp;#34;,&amp;#34;v&amp;#34;:22.22222222222222},{&amp;#34;s&amp;#34;:33,&amp;#34;n&amp;#34;:&amp;#34;a&amp;#34;,&amp;#34;v&amp;#34;:&amp;#34;left&amp;#34;},{&amp;#34;s&amp;#34;:43,&amp;#34;n&amp;#34;:&amp;#34;t&amp;#34;,&amp;#34;v&amp;#34;:&amp;#34;ul&amp;#34;},{&amp;#34;s&amp;#34;:43,&amp;#34;n&amp;#34;:&amp;#34;l&amp;#34;,&amp;#34;v&amp;#34;:&amp;#34;auto&amp;#34;},{&amp;#34;s&amp;#34;:43,&amp;#34;n&amp;#34;:&amp;#34;il&amp;#34;,&amp;#34;v&amp;#34;:22.22222222222222},{&amp;#34;s&amp;#34;:43,&amp;#34;n&amp;#34;:&amp;#34;fl&amp;#34;,&amp;#34;v&amp;#34;:22.22222222222222},{&amp;#34;s&amp;#34;:43,&amp;#34;n&amp;#34;:&amp;#34;a&amp;#34;,&amp;#34;v&amp;#34;:&amp;#34;left&amp;#34;},{&amp;#34;s&amp;#34;:56,&amp;#34;n&amp;#34;:&amp;#34;t&amp;#34;,&amp;#34;v&amp;#34;:&amp;#34;ul&amp;#34;},{&amp;#34;s&amp;#34;:56,&amp;#34;n&amp;#34;:&amp;#34;l&amp;#34;,&amp;#34;v&amp;#34;:&amp;#34;auto&amp;#34;},{&amp;#34;s&amp;#34;:56,&amp;#34;n&amp;#34;:&amp;#34;il&amp;#34;,&amp;#34;v&amp;#34;:22.22222222222222},{&amp;#34;s&amp;#34;:56,&amp;#34;n&amp;#34;:&amp;#34;fl&amp;#34;,&amp;#34;v&amp;#34;:22.22222222222222},{&amp;#34;s&amp;#34;:56,&amp;#34;n&amp;#34;:&amp;#34;a&amp;#34;,&amp;#34;v&amp;#34;:&amp;#34;left&amp;#34;}]}&quot;&gt;&lt;span style=&quot;font-size: 16.666666666666664px ; color: #333333 ; font-weight: bold ; text-align: left&quot;&gt;&lt;/span&gt;&lt;/span&gt;" style="rounded=0;whiteSpace=wrap;html=1;fontSize=18;verticalAlign=middle;fillColor=#f8cecc;strokeColor=#b85450;" parent="1" vertex="1">
          <mxGeometry x="470" y="890" width="130" height="60" as="geometry" />
        </mxCell>
        <mxCell id="hmz7pVN9PwRYDELIJkyp-21" value="Request with Credentials" style="text;html=1;align=center;verticalAlign=middle;resizable=0;points=[];autosize=1;strokeColor=none;fontStyle=1;fontSize=15;" parent="1" vertex="1">
          <mxGeometry x="235" y="890" width="190" height="20" as="geometry" />
        </mxCell>
        <mxCell id="hmz7pVN9PwRYDELIJkyp-22" value="Response with Token" style="text;html=1;align=center;verticalAlign=middle;resizable=0;points=[];autosize=1;strokeColor=none;fontStyle=1;fontSize=15;" parent="1" vertex="1">
          <mxGeometry x="237" y="930" width="170" height="20" as="geometry" />
        </mxCell>
        <mxCell id="hmz7pVN9PwRYDELIJkyp-26" style="edgeStyle=orthogonalEdgeStyle;rounded=0;orthogonalLoop=1;jettySize=auto;html=1;entryX=1;entryY=0.5;entryDx=0;entryDy=0;fontSize=15;" parent="1" source="hmz7pVN9PwRYDELIJkyp-23" target="hmz7pVN9PwRYDELIJkyp-5" edge="1">
          <mxGeometry relative="1" as="geometry" />
        </mxCell>
        <mxCell id="hmz7pVN9PwRYDELIJkyp-23" value="Mysql" style="shape=cylinder3;whiteSpace=wrap;html=1;boundedLbl=1;backgroundOutline=1;size=15;fontSize=15;verticalAlign=middle;fillColor=#ffe6cc;strokeColor=#d79b00;" parent="1" vertex="1">
          <mxGeometry x="780" y="1370" width="60" height="80" as="geometry" />
        </mxCell>
        <mxCell id="hmz7pVN9PwRYDELIJkyp-25" value="&lt;div&gt;Encrypted &lt;br&gt;&lt;/div&gt;&lt;div&gt;Token&lt;/div&gt;" style="text;html=1;align=center;verticalAlign=middle;resizable=0;points=[];autosize=1;strokeColor=none;fontStyle=1;fontSize=15;" parent="1" vertex="1">
          <mxGeometry x="650" y="1370" width="90" height="40" as="geometry" />
        </mxCell>
        <mxCell id="ukAAbxEch2qoX0FbEL7n-1" value="API-1" style="shape=cylinder3;whiteSpace=wrap;html=1;boundedLbl=1;backgroundOutline=1;size=15;" vertex="1" parent="1">
          <mxGeometry x="260" y="1610" width="60" height="80" as="geometry" />
        </mxCell>
        <mxCell id="ukAAbxEch2qoX0FbEL7n-2" value="API-2" style="shape=cylinder3;whiteSpace=wrap;html=1;boundedLbl=1;backgroundOutline=1;size=15;" vertex="1" parent="1">
          <mxGeometry x="365" y="1610" width="60" height="80" as="geometry" />
        </mxCell>
        <mxCell id="ukAAbxEch2qoX0FbEL7n-3" value="MYSQL" style="shape=cylinder3;whiteSpace=wrap;html=1;boundedLbl=1;backgroundOutline=1;size=15;" vertex="1" parent="1">
          <mxGeometry x="470" y="1610" width="60" height="80" as="geometry" />
        </mxCell>
        <mxCell id="ukAAbxEch2qoX0FbEL7n-4" value="REDIS" style="shape=cylinder3;whiteSpace=wrap;html=1;boundedLbl=1;backgroundOutline=1;size=15;" vertex="1" parent="1">
          <mxGeometry x="577" y="1610" width="60" height="80" as="geometry" />
        </mxCell>
        <mxCell id="ukAAbxEch2qoX0FbEL7n-5" value="ANGULAR" style="shape=cylinder3;whiteSpace=wrap;html=1;boundedLbl=1;backgroundOutline=1;size=15;" vertex="1" parent="1">
          <mxGeometry x="150" y="1610" width="60" height="80" as="geometry" />
        </mxCell>
        <mxCell id="ukAAbxEch2qoX0FbEL7n-7" style="edgeStyle=orthogonalEdgeStyle;rounded=0;orthogonalLoop=1;jettySize=auto;html=1;" edge="1" parent="1" source="ukAAbxEch2qoX0FbEL7n-6">
          <mxGeometry relative="1" as="geometry">
            <mxPoint x="180" y="1700" as="targetPoint" />
          </mxGeometry>
        </mxCell>
        <mxCell id="ukAAbxEch2qoX0FbEL7n-8" style="edgeStyle=orthogonalEdgeStyle;rounded=0;orthogonalLoop=1;jettySize=auto;html=1;entryX=0.5;entryY=1;entryDx=0;entryDy=0;entryPerimeter=0;" edge="1" parent="1" source="ukAAbxEch2qoX0FbEL7n-6" target="ukAAbxEch2qoX0FbEL7n-1">
          <mxGeometry relative="1" as="geometry" />
        </mxCell>
        <mxCell id="ukAAbxEch2qoX0FbEL7n-9" style="edgeStyle=orthogonalEdgeStyle;rounded=0;orthogonalLoop=1;jettySize=auto;html=1;entryX=0.5;entryY=1;entryDx=0;entryDy=0;entryPerimeter=0;" edge="1" parent="1" source="ukAAbxEch2qoX0FbEL7n-6" target="ukAAbxEch2qoX0FbEL7n-2">
          <mxGeometry relative="1" as="geometry" />
        </mxCell>
        <mxCell id="ukAAbxEch2qoX0FbEL7n-6" value="NGNIX" style="rounded=0;whiteSpace=wrap;html=1;" vertex="1" parent="1">
          <mxGeometry x="335" y="1850" width="120" height="60" as="geometry" />
        </mxCell>
        <mxCell id="ukAAbxEch2qoX0FbEL7n-10" value="ide.com" style="text;html=1;align=center;verticalAlign=middle;resizable=0;points=[];autosize=1;strokeColor=none;" vertex="1" parent="1">
          <mxGeometry x="115" y="1790" width="60" height="20" as="geometry" />
        </mxCell>
        <mxCell id="ukAAbxEch2qoX0FbEL7n-11" value="ide.api1.com" style="text;html=1;align=center;verticalAlign=middle;resizable=0;points=[];autosize=1;strokeColor=none;" vertex="1" parent="1">
          <mxGeometry x="211" y="1790" width="80" height="20" as="geometry" />
        </mxCell>
        <mxCell id="ukAAbxEch2qoX0FbEL7n-12" value="ide.api2.com" style="text;html=1;align=center;verticalAlign=middle;resizable=0;points=[];autosize=1;strokeColor=none;" vertex="1" parent="1">
          <mxGeometry x="310" y="1790" width="80" height="20" as="geometry" />
        </mxCell>
      </root>
    </mxGraphModel>
  </diagram>
  <diagram id="dnQzDgLjcF8ucDliay27" name="Roles">
    <mxGraphModel dx="1426" dy="712" grid="1" gridSize="10" guides="1" tooltips="1" connect="1" arrows="1" fold="1" page="1" pageScale="1" pageWidth="827" pageHeight="1169" math="0" shadow="0">
      <root>
        <mxCell id="FMOjAZqRPyrcjGRzVN1K-0" />
        <mxCell id="FMOjAZqRPyrcjGRzVN1K-1" parent="FMOjAZqRPyrcjGRzVN1K-0" />
        <mxCell id="rlqlCBnIa1IzmrZx65xU-2" value="&lt;div&gt;&lt;b&gt;Emre&lt;/b&gt;&lt;/div&gt;&lt;div&gt;&lt;b&gt;&lt;br&gt;&lt;/b&gt;&lt;/div&gt;&lt;div style=&quot;font-size: 15px&quot; align=&quot;left&quot;&gt;Kodlama&lt;br&gt;&lt;/div&gt;" style="whiteSpace=wrap;html=1;aspect=fixed;fontSize=18;verticalAlign=top;" parent="FMOjAZqRPyrcjGRzVN1K-1" vertex="1">
          <mxGeometry x="140" y="170" width="140" height="140" as="geometry" />
        </mxCell>
        <mxCell id="rlqlCBnIa1IzmrZx65xU-3" value="&lt;div&gt;&lt;b&gt;Dagistan&lt;/b&gt;&lt;/div&gt;&lt;div&gt;&lt;b&gt;&lt;br&gt;&lt;/b&gt;&lt;/div&gt;&lt;div style=&quot;font-size: 15px&quot; align=&quot;left&quot;&gt;Kodlama&lt;br&gt;&lt;/div&gt;" style="whiteSpace=wrap;html=1;aspect=fixed;fontSize=18;verticalAlign=top;" parent="FMOjAZqRPyrcjGRzVN1K-1" vertex="1">
          <mxGeometry x="330" y="170" width="140" height="140" as="geometry" />
        </mxCell>
        <mxCell id="rlqlCBnIa1IzmrZx65xU-4" value="&lt;div&gt;&lt;b&gt;Ilhan&lt;/b&gt;&lt;/div&gt;&lt;div&gt;&lt;b&gt;&lt;br&gt;&lt;/b&gt;&lt;/div&gt;&lt;div style=&quot;font-size: 15px&quot; align=&quot;left&quot;&gt;&lt;span style=&quot;background-color: rgb(255 , 255 , 51)&quot;&gt;Geri kalan hersey&lt;/span&gt;&lt;br&gt;&lt;/div&gt;" style="whiteSpace=wrap;html=1;aspect=fixed;fontSize=18;verticalAlign=top;" parent="FMOjAZqRPyrcjGRzVN1K-1" vertex="1">
          <mxGeometry x="530" y="170" width="140" height="140" as="geometry" />
        </mxCell>
        <mxCell id="rlqlCBnIa1IzmrZx65xU-5" value="Gorev Plani" style="text;html=1;strokeColor=none;fillColor=none;align=center;verticalAlign=middle;whiteSpace=wrap;rounded=0;fontSize=24;fontStyle=1" parent="FMOjAZqRPyrcjGRzVN1K-1" vertex="1">
          <mxGeometry x="290" y="80" width="170" height="20" as="geometry" />
        </mxCell>
      </root>
    </mxGraphModel>
  </diagram>
  <diagram id="KBRQehwu73JB0DqbX3fT" name="Finans">
    <mxGraphModel dx="1426" dy="712" grid="1" gridSize="10" guides="1" tooltips="1" connect="1" arrows="1" fold="1" page="1" pageScale="1" pageWidth="827" pageHeight="1169" math="0" shadow="0">
      <root>
        <mxCell id="gKilOt_ZTlK05vMzcHNI-0" />
        <mxCell id="gKilOt_ZTlK05vMzcHNI-1" parent="gKilOt_ZTlK05vMzcHNI-0" />
        <mxCell id="gKilOt_ZTlK05vMzcHNI-2" value="&lt;h1&gt;Finans&lt;/h1&gt;&lt;p&gt;- Her uye 100 Euro baslangic sermaye katkisi,&lt;/p&gt;&lt;p&gt;- Negatif hesap bakiyesi, &lt;br&gt;&lt;/p&gt;&lt;p&gt;- Ihtiyac durumunda harcama,&lt;/p&gt;&lt;p&gt;- Herkes positive gecince yeni sermaye tranferi,&lt;/p&gt;&lt;p&gt;- Hesap defteri sorumlusu, Ilhan.&lt;br&gt;&lt;/p&gt;" style="text;html=1;strokeColor=none;fillColor=none;spacing=5;spacingTop=-20;whiteSpace=wrap;overflow=hidden;rounded=0;fontSize=24;verticalAlign=top;" vertex="1" parent="gKilOt_ZTlK05vMzcHNI-1">
          <mxGeometry x="70" y="70" width="700" height="490" as="geometry" />
        </mxCell>
      </root>
    </mxGraphModel>
  </diagram>
  <diagram id="cU4l30JBWjO8TV6Hsdwt" name="Sozlesme">
    <mxGraphModel dx="1426" dy="712" grid="1" gridSize="10" guides="1" tooltips="1" connect="1" arrows="1" fold="1" page="1" pageScale="1" pageWidth="827" pageHeight="1169" math="0" shadow="0">
      <root>
        <mxCell id="EvL7pWGo_mLh85PC4B1z-0" />
        <mxCell id="EvL7pWGo_mLh85PC4B1z-1" parent="EvL7pWGo_mLh85PC4B1z-0" />
        <mxCell id="EvL7pWGo_mLh85PC4B1z-2" value="&lt;h1&gt;Sozlesme&lt;/h1&gt;&lt;p&gt;- Tum kurucu ortaklar esit hakka sahiptir ve yonetim kurulu uyesidir,&lt;/p&gt;&lt;p&gt;- Karar alim surecinde oybirligi esastir,&lt;/p&gt;&lt;p&gt;- Yeni uye alimina oy birligi ile karar verilir,&lt;/p&gt;&lt;p&gt;- Kar dagitimi, yonetim kurulu karari ile yilda bir defa yapilir.&lt;/p&gt;&lt;p&gt;- Sermaye artirimina yonetim kurulu karari ile karar verilir. Artirim kar payinin aktarimi veya uye katilimi ile gerceklesir.&lt;br&gt;&lt;/p&gt;&lt;p&gt;- Calisanlara saatlik calisma suresi uzerinden odeme yapilir. Yonetim &lt;br&gt;kurulu yeni karar almadigi surece, ortaklarin calismasi ucretlendirilmez.&lt;/p&gt;&lt;p&gt;- Ortaklar arasinda, emek ve ucret esitligi prensibi esastir. Uyelerin emeklerinin kaydedilmesi icin &quot;Emek Kayit Defteri&quot; tutulur. (Google documents.)&lt;br&gt;&lt;/p&gt;&lt;p&gt;- Her bir uye, calismasini haftalik olarak bu deftere kaydeder. Ucretli calisma surecine baslandiginda uyelerin calisma saatleri hesaplanir ve eksik calismasi olanlar, ucretsiz calisarak mahsuplasir.&lt;/p&gt;&lt;p&gt;- Ucretli calismalarda, her isin suresi ilgili uye tarafindan belirlenir, deftere kayit edilir ve yonetim kurulu haftalik toplantilarda bilgilendirilir.&lt;br&gt;&lt;/p&gt;&lt;p&gt;- Ortakliktan cikis;&lt;/p&gt;&lt;p&gt;&lt;span&gt; &lt;/span&gt;* Tek tarafli cikista, sirketin net sermayesinin 1/3&#39;u, en fazla 3 yil icinde ayrilan uyeye belirlenecek usul ile verilir. &lt;br&gt;&lt;/p&gt;&lt;p&gt;&lt;span&gt; &lt;/span&gt;* Sure ve odeme sekli, mumkunse bir ay icinde tek seferde, degilse esit taksitler halinde belirlenecek sure icinde odenir. &lt;br&gt;&lt;/p&gt;&lt;p&gt;&lt;span&gt; &lt;/span&gt;* Ilk odeme en gec uc ay icinde baslar.&lt;br&gt;&lt;/p&gt;&lt;p&gt;&lt;span&gt; &lt;/span&gt;* Oy birligi ile cikista ozel kosullar kararlastirilir.&lt;/p&gt;&lt;p&gt;* Her Pazar 10:00-11:00 arasi degerlendirme toplantisi.&lt;br&gt;&lt;/p&gt;&lt;p&gt;&lt;br&gt;&lt;/p&gt;&lt;p&gt;&lt;br&gt;&lt;/p&gt;" style="text;html=1;strokeColor=none;fillColor=none;spacing=5;spacingTop=-20;whiteSpace=wrap;overflow=hidden;rounded=0;fontSize=24;verticalAlign=top;" vertex="1" parent="EvL7pWGo_mLh85PC4B1z-1">
          <mxGeometry x="20" y="30" width="790" height="1350" as="geometry" />
        </mxCell>
      </root>
    </mxGraphModel>
  </diagram>
</mxfile>
